<svg width="49" height="48" viewBox="0 0 49 48" fill="none" xmlns="http://www.w3.org/2000/svg">
<path fill-rule="evenodd" clip-rule="evenodd" d="M42.293 14.24L42.013 13.74C41.6518 13.1354 41.1424 12.6329 40.533 12.28L27.113 4.54C26.5054 4.1875 25.8156 4.00124 25.113 4H24.533C23.8304 4.00124 23.1406 4.1875 22.533 4.54L9.11301 12.3C8.50695 12.6505 8.00353 13.1539 7.65301 13.76L7.37301 14.26C7.02051 14.8677 6.83425 15.5575 6.83301 16.26V31.76C6.83425 32.4626 7.02051 33.1524 7.37301 33.76L7.65301 34.26C8.01259 34.859 8.51399 35.3604 9.11301 35.72L22.553 43.46C23.1576 43.8198 23.8494 44.0066 24.553 44H25.113C25.8156 43.9988 26.5054 43.8126 27.113 43.46L40.533 35.7C41.145 35.3574 41.6504 34.852 41.993 34.24L42.293 33.74C42.6412 33.1306 42.8272 32.442 42.833 31.74V16.24C42.8318 15.5375 42.6456 14.8477 42.293 14.24ZM24.533 8H25.113L36.833 14.76L24.833 21.68L12.833 14.76L24.533 8ZM26.833 39L38.533 32.24L38.833 31.74V18.22L26.833 25.16V39Z" fill="#FBEE8A"/>
</svg>
