<svg width="83" height="77" viewBox="0 0 83 77" fill="none" xmlns="http://www.w3.org/2000/svg">
<path d="M44.8015 2.55063C44.1012 3.12813 38.6543 13.1562 38.6543 13.1562L34.6016 28.3216L50.3716 26.9801C50.3716 26.9801 63.4895 4.3493 63.7553 3.82594C64.2287 2.87547 64.4816 2.48445 62.6724 2.48445C60.8633 2.47844 45.4564 2.00922 44.8015 2.55063Z" fill="#176CC7"/>
<path d="M52.9642 26.0416C52.1796 25.6506 29.0692 25.3137 28.5246 26.0416C28.0317 26.7033 28.3106 30.1744 28.4986 30.5894C28.8358 31.3113 36.2993 34.4575 36.2993 34.4575L36.1567 35.8892C36.1567 35.8892 36.7662 36.0336 41.1042 36.0336C45.4423 36.0336 46.2982 35.829 46.2982 35.829L46.3112 34.5357C46.3112 34.5357 53.029 31.5038 53.3662 31.0827C53.6515 30.7338 53.7488 26.4326 52.9642 26.0416ZM46.0842 31.5279C46.0842 31.5279 46.2982 30.6436 45.8508 30.439C45.4034 30.2285 37.7259 30.3247 37.1164 30.3548C36.5068 30.3849 36.5068 31.3955 36.5068 31.3955L31.6695 29.0855L31.5787 28.2253L49.9295 28.3456L49.8646 29.1577L46.0842 31.5279Z" fill="#F79429"/>
<path d="M38.4265 31.2151C37.817 31.2151 37.4668 31.8046 37.4668 32.8213C37.4668 33.7717 37.817 34.5718 38.5886 34.5117C39.2241 34.4635 39.4445 33.5612 39.3862 32.7611C39.3278 31.8046 39.1981 31.2151 38.4265 31.2151Z" fill="#FDFFFF"/>
<path d="M19.0059 55.3979C19.0059 69.8113 33.0834 75.8089 42.4274 75.5502C53.3147 75.2494 65.0255 67.5855 64.0593 53.8338C63.1515 40.9303 51.4407 35.0109 41.2084 35.0771C29.316 35.1613 19.0059 42.8072 19.0059 55.3979Z" fill="#F79429"/>
<path d="M41.9338 73.3726C41.7716 73.3726 41.6031 73.3726 41.4409 73.3666C36.5777 73.2162 31.7727 71.3153 28.2582 68.157C24.4973 64.7763 22.4352 60.2044 22.4612 55.2896C22.5195 43.2885 33.8283 37.724 41.4993 37.724H41.5641C51.9586 37.7661 60.492 45.2616 60.732 55.422C60.8357 59.9457 59.2795 64.4454 55.3629 68.0187C51.7057 71.3393 46.4145 73.3726 41.9338 73.3726ZM41.4863 39.7212C34.6064 39.7212 24.4324 44.9428 24.4065 55.2896C24.387 63.0257 30.8455 70.9784 41.6031 71.3153C45.7012 71.4356 50.3245 70.0279 53.7288 66.9238C57.2693 63.6935 58.858 59.4825 58.7867 55.452C58.631 46.7113 50.9276 39.7573 41.5771 39.7212C41.5577 39.7092 41.5058 39.7212 41.4863 39.7212Z" fill="#D25116"/>
<path d="M37.6677 36.978C37.2202 36.4066 32.6358 36.569 27.7012 40.5092C22.799 44.4254 22.0663 48.7566 22.9481 48.9852C23.9532 49.2439 25.1788 45.057 29.4131 41.5379C33.3037 38.3195 38.556 38.115 37.6677 36.978ZM57.3737 52.7209C55.8109 52.9255 57.432 57.2687 53.8073 62.1294C50.6624 66.3463 47.0959 67.8743 47.5109 68.8007C48.0686 70.0399 53.7813 66.9539 56.427 61.9248C58.8197 57.371 58.5344 52.5645 57.3737 52.7209Z" fill="#FEFFFA"/>
<path d="M16.5411 2.23782C16.1326 2.58673 31.7534 28.3938 31.7534 28.3938C31.7534 28.3938 34.3731 28.7066 40.222 28.7547C46.0709 28.8028 48.9694 28.4419 48.9694 28.4419C48.9694 28.4419 36.8242 2.49649 36.098 2.23782C35.7413 2.10548 30.9299 2.05735 26.2287 2.00922C21.5211 1.95508 16.9301 1.90094 16.5411 2.23782Z" fill="#2E9DF4"/>
<path d="M48.6012 50.3568C47.849 44.3111 40.2623 43.8058 37.1174 46.1278C34.0568 48.3897 34.3486 51.5419 36.4949 51.9088C38.1873 52.1976 38.6283 50.9523 39.1211 50.3809C40.2364 49.0995 42.0131 48.9792 43.1738 50.0079C44.4901 51.1809 43.6796 53.9842 41.7018 54.0985C40.2299 54.1827 39.4842 54.1105 39.2961 54.3452C39.0303 54.676 39.0692 57.2808 39.3415 57.5695C39.6528 57.9004 40.8978 57.6959 41.9677 57.732C43.4397 57.7861 45.0024 59.8073 43.9714 61.3233C42.9015 62.8934 40.0548 62.1895 39.0303 61.2391C37.6751 59.9818 36.3198 60.7037 35.8659 61.197C35.1526 61.979 34.394 63.7596 37.0266 65.4921C39.6528 67.2246 47.6221 67.5555 49.2302 62.1895C50.6308 57.5034 47.3627 55.5784 47.3627 55.5784C47.3627 55.5784 49.0292 53.8038 48.6012 50.3568Z" fill="#D25116"/>
</svg>
