<svg width="512" height="120" viewBox="0 0 512 120" fill="none" xmlns="http://www.w3.org/2000/svg">
<path d="M139.668 28H14.4639C9.71484 28 7.64079 33.9994 11.3759 36.9324L56.0742 72.0329L10.4141 110.69C6.85976 113.699 8.98776 119.506 13.6449 119.506H112.158C127.351 119.506 139.668 107.189 139.668 91.9958V28Z" fill="#FBEE8A"/>
<rect x="106" width="300" height="98" rx="20" fill="#FBEE8A"/>
<path d="M372 28H497.207C501.956 28 504.03 33.9993 500.295 36.9324L455.596 72.0349L501.257 110.694C504.811 113.703 502.683 119.51 498.026 119.51H400.167C384.611 119.51 372 106.899 372 91.3433V28Z" fill="#FBEE8A"/>
</svg>
