<svg width="83" height="77" viewBox="0 0 83 77" fill="none" xmlns="http://www.w3.org/2000/svg">
<path d="M44.8015 2.55063C44.1012 3.12813 38.6543 13.1562 38.6543 13.1562L34.6016 28.3216L50.3716 26.9801C50.3716 26.9801 63.4895 4.3493 63.7553 3.82594C64.2287 2.87547 64.4816 2.48445 62.6724 2.48445C60.8633 2.47844 45.4564 2.00922 44.8015 2.55063Z" fill="#176CC7"/>
<path d="M52.9649 26.0418C52.1803 25.6508 29.07 25.3139 28.5253 26.0418C28.0325 26.7035 28.1039 29.7294 28.3438 30.1204C28.5837 30.5114 36.352 33.8621 36.352 33.8621L36.3455 35.0833C36.3455 35.0833 36.7735 36.0398 41.105 36.0398C45.4366 36.0398 45.884 35.2277 45.884 35.2277L45.9229 33.9945C45.9229 33.9945 52.725 30.8423 53.0817 30.5656C53.4448 30.2828 53.7496 26.4328 52.9649 26.0418ZM45.8451 31.0528C45.8451 31.0528 45.8257 30.2106 45.3782 30.0001C44.9308 29.7895 37.7267 29.8256 37.1171 29.8557C36.5076 29.8858 36.5076 30.8964 36.5076 30.8964L31.5795 28.6706V28.2255L49.9303 28.3458L49.9627 28.8511L45.8451 31.0528Z" fill="#FCC417"/>
<path d="M38.4265 30.7818C37.817 30.7818 37.4668 31.3713 37.4668 32.388C37.4668 33.3384 37.817 34.1385 38.5886 34.0784C39.2241 34.0302 39.4445 33.1279 39.3862 32.3278C39.3278 31.3773 39.1981 30.7818 38.4265 30.7818Z" fill="#FDFFFF"/>
<path d="M18.791 54.5739C18.791 68.9874 32.8362 75.406 42.1737 75.0992C52.4709 74.7564 64.8041 67.309 64.0584 53.5573C63.3516 40.5274 51.5371 34.3494 41.3048 34.4156C29.4124 34.4938 18.791 41.9832 18.791 54.5739Z" fill="#FCC417"/>
<path d="M41.8439 72.5905C41.6818 72.5905 41.5132 72.5905 41.3511 72.5845C36.4878 72.4341 31.6829 70.5331 28.1684 67.3749C24.4074 63.9942 22.3454 59.4223 22.3713 54.5075C22.4297 42.5063 33.7384 36.9419 41.4095 36.9419H41.4743C51.8688 36.984 60.4022 44.4795 60.6421 54.6399C60.7459 59.1636 58.7487 63.9099 54.8321 67.4832C51.1749 70.8099 46.3246 72.5905 41.8439 72.5905ZM41.3965 38.9391C34.5166 38.9391 24.3426 44.1606 24.3166 54.5075C24.2972 62.2436 30.7556 70.1963 41.5132 70.5331C45.6113 70.6535 49.8327 69.1977 53.2434 66.0876C56.7839 62.8572 58.7746 58.6944 58.7033 54.6639C58.5477 45.9232 50.8442 38.9692 41.4938 38.9331C41.4678 38.9331 41.4159 38.9391 41.3965 38.9391Z" fill="#FA912C"/>
<path d="M37.492 36.4607C37.0445 35.8892 31.9738 35.9975 27.1818 40.3408C22.5584 44.5336 22.0592 48.4859 22.9475 48.7145C23.9526 48.9732 25.1781 44.7863 29.4124 41.2672C33.3031 38.0428 38.3868 37.5976 37.492 36.4607ZM57.1072 52.0231C55.5445 52.2276 57.1656 56.5709 53.5408 61.4315C50.3959 65.6485 46.8295 67.1765 47.2445 68.1029C47.8021 69.3421 53.5149 66.2561 56.1605 61.227C58.5597 56.6732 58.2744 51.8667 57.1072 52.0231Z" fill="#FEFFFA"/>
<path d="M36.2154 46.3322C35.8782 46.7954 36.183 50.8559 36.384 51.0364C36.7731 51.3973 39.7299 50.104 39.7299 50.104L39.6197 60.9622C39.6197 60.9622 37.4474 60.9381 37.2205 61.0163C36.7731 61.1727 36.8314 65.3596 37.1621 65.5641C37.4928 65.7687 46.357 65.877 46.6941 65.4619C47.0313 65.0468 46.947 61.3833 46.7914 61.2148C46.5126 60.902 44.3922 61.0284 44.3922 61.0284C44.3922 61.0284 44.5738 45.0388 44.5154 44.5275C44.457 44.0162 43.8475 43.6973 43.1213 43.8538C42.395 44.0102 36.4294 46.0314 36.2154 46.3322Z" fill="#FA912C"/>
<path d="M16.5411 2.23776C16.1326 2.58666 31.7534 28.3937 31.7534 28.3937C31.7534 28.3937 34.3731 28.7065 40.222 28.7546C46.0709 28.8028 48.9694 28.4418 48.9694 28.4418C48.9694 28.4418 36.8242 2.49643 36.098 2.23776C35.7413 2.10541 30.9299 2.05729 26.2287 2.00916C21.5211 1.95502 16.9301 1.90088 16.5411 2.23776Z" fill="#2E9DF4"/>
</svg>
