<svg width="231" height="162" viewBox="0 0 231 162" fill="none" xmlns="http://www.w3.org/2000/svg">
<path d="M18.9566 86.1795C15.0328 43.5316 53.7236 9.38635 95.5527 18.5821L153.656 26.973C157.786 27.5693 161.984 27.4998 166.091 26.7673C190.018 22.5001 211.986 40.8971 211.986 65.2012V77.0488C211.986 81.4072 212.606 85.7434 213.827 89.9273C222.413 119.35 200.347 148.776 169.697 148.776H123.033L69.7977 154.834C40.0424 158.22 15.0978 132.605 19.2718 102.95C19.7651 99.4453 19.8505 95.8954 19.5262 92.3713L18.9566 86.1795Z" fill="#C3C3C3"/>
<path d="M12.8463 82.9577C8.95814 41.8484 46.1057 8.79041 86.4856 17.4256L142.622 25.3112C146.523 25.8593 150.487 25.7954 154.368 25.122C177.536 21.1027 198.732 38.938 198.732 62.452V72.1346C198.732 76.2993 199.34 80.4416 200.537 84.4306C208.774 111.885 188.215 139.516 159.552 139.516H112.978L60.0381 145.376C32.1812 148.46 8.91628 124.403 12.9299 96.6649C13.4171 93.2976 13.5014 89.8842 13.1811 86.4969L12.8463 82.9577Z" fill="#969696"/>
<path d="M41.781 24.4226L57.3518 37.1224L68.1286 33.5892L76.4718 46.5176L89.4213 35.2755L96.7216 42.9844L139.066 56.4749L96.7216 48.1236H89.4213L76.4718 60.4097L63.6093 56.4749L51.0075 62.9793L46.4882 46.5176L29.0195 37.1224L41.781 24.4226Z" fill="#7D7D7D"/>
<path d="M141.616 118.888C141.616 110.637 131.962 92.76 131.962 92.76L125.278 69.3821C139.295 79.5858 144.091 91.1883 161.171 95.5103C178.251 99.8323 143.22 105.136 154.488 112.012C165.756 118.888 180.232 135.194 180.232 135.194L167.13 139.319H152.012H122.64H109.538L95.0723 141.262C112.183 134.894 141.616 127.139 141.616 118.888Z" fill="#7D7D7D"/>
<path d="M141.616 118.888C141.616 110.637 131.962 92.76 131.962 92.76L125.278 69.3821C139.295 79.5858 144.091 91.1883 161.171 95.5103C178.251 99.8323 143.22 105.136 154.488 112.012C165.756 118.888 180.232 135.194 180.232 135.194L167.13 139.319H152.012H122.64H109.538L95.0723 141.262C112.183 134.894 141.616 127.139 141.616 118.888Z" fill="#7D7D7D"/>
<path d="M41.3763 74.9326L54.9453 90.3376C54.9453 90.3376 96.976 90.3376 89.1987 102.241C81.4213 114.145 70.3345 147.406 65.8667 130.951C61.3988 114.495 45.8442 116.246 45.8442 102.241C45.8442 88.2369 39.3906 124.999 39.3906 124.999L41.3763 74.9326Z" fill="#7D7D7D"/>
<path d="M152.082 25.8279C153.615 26.0227 155.063 28.9312 155.807 30.0086C156.663 31.2474 156.725 32.8325 157.512 34.0822C158.681 35.9393 159.981 37.7599 161.272 39.5314C163.875 43.1052 166.55 46.776 169.337 50.1977C170.956 52.1858 172.161 54.4693 173.906 56.3616C175.712 58.3203 177.726 60.0337 179.476 62.0431C183.856 67.0715 188.589 71.659 194.377 75.0499C198.607 77.5286 203.448 81.1675 208.381 82.0357C210.078 82.3344 211.439 82.1389 212.932 81.464C213.855 81.0469 213.442 78.7696 213.442 77.9264" stroke="url(#paint0_linear_2179_9519)" stroke-width="3.90778" stroke-linecap="round"/>
<path d="M157.143 30.3303C158 30.3303 158.611 29.2221 159.603 28.9724C162.194 28.3203 163.885 28.4651 166.315 29.1154C168.049 29.5794 169.5 30.5578 171.305 30.902C171.865 31.0087 175.66 30.9295 173.537 32.1169C169.202 34.5413 166.537 36.5765 161.711 34.1894C159.434 33.063 158.711 32.2598 162.045 32.2598C162.635 32.2598 167.178 32.415 167.176 32.4206C166.85 33.249 161.251 32.3613 161.834 32.1169C163.201 31.5445 165.34 32.1402 166.719 32.4206C167.198 32.518 169.212 33.0845 167.492 32.7244C167.168 32.6565 164.302 31.9919 164.909 31.7953C166.21 31.3745 168.344 31.5816 169.653 32.0097C171.665 32.6671 161.286 30.9997 163.398 30.9735C164.721 30.957 166.046 30.9735 167.369 30.9735C168.957 30.9735 164.223 30.5267 162.642 30.366C162.331 30.3344 160.901 30.6519 160.305 30.6519" stroke="url(#paint1_linear_2179_9519)" stroke-width="3.90778" stroke-linecap="round"/>
<path d="M162.52 42.8726C162.575 43.3142 162.842 43.045 163.083 43.2656C163.758 43.8838 163.934 45.3327 164.084 46.1243C164.782 49.7901 163.384 51.714 162.696 55.1111C162.655 55.3129 162.597 57.5309 162.766 57.2729C163.486 56.1757 161.724 53.7576 161.273 52.8778C160.105 50.6022 158.672 47.7958 160.306 45.3024C160.921 44.3655 161.73 44.407 162.45 43.7659C163.217 43.0832 162.458 45.8425 162.362 46.8746C162.274 47.8248 162.204 50.6877 162.204 49.7333C162.204 48.7923 162.204 45.9694 162.204 46.9104C162.204 48.2482 162.041 49.6924 162.204 51.0197C162.289 51.7075 162.52 48.2718 162.52 48.965C162.52 50.1871 162.625 51.4507 162.204 52.5204" stroke="url(#paint2_linear_2179_9519)" stroke-width="3.90778" stroke-linecap="round"/>
<path d="M172.324 55.0931C175.123 54.9257 177.618 53.0237 180.565 53.1814C182.77 53.2994 185.213 53.4092 187.365 53.6281C187.899 53.6823 186.95 55.5337 186.873 55.6648C185.959 57.2233 184.351 58.1823 182.779 58.9344C180.325 60.1087 177.478 59.6608 175.136 58.4699C174.742 58.2696 172.398 56.9464 173.8 56.6296C176.752 55.9626 179.773 55.6467 182.709 54.9502C184.594 54.5029 180.778 56.4992 180.407 56.6118C180.029 56.7266 175.722 57.4359 177.736 56.5582C178.389 56.2738 183.088 55.59 182.551 56.0758C181.224 57.2753 178.434 57.2018 176.752 57.3443" stroke="url(#paint3_linear_2179_9519)" stroke-width="3.90778" stroke-linecap="round"/>
<path d="M187.823 73.7457C191.668 73.7457 190.56 79.5966 190.37 82.1072C190.226 84.0136 190.765 83.6347 189.193 82.5002C187.252 81.0995 185.14 80.1263 183.746 78.0515C183.144 77.1554 181.703 70.9903 184.027 70.8513C186.6 70.6974 186.7 72.8431 186.944 75.2107C187.091 76.6415 187.998 80.8301 187.998 79.3915C187.998 77.7534 186.094 75.8995 185.679 74.3174C185.178 72.4068 188.418 77.4351 188.701 79.3915C188.95 81.1091 184.87 77.1553 184.256 76.4971C182.68 74.8083 183.22 73.4504 185.327 75.2107C185.731 75.5478 189.606 81.3636 188.561 81.3211C187.096 81.2615 187.724 79.6542 188.877 82.2322C189.45 83.5145 189.511 83.1804 188.771 82.4288" stroke="url(#paint4_linear_2179_9519)" stroke-width="3.90778" stroke-linecap="round"/>
<path d="M196.996 75.9967C196.996 77.5561 198.59 73.3143 199.597 72.1376C201.572 69.8275 204.351 68.9095 206.731 67.135C208.029 66.1667 207.381 71.5932 206.731 72.5306C204.839 75.2588 201.981 77.7405 198.455 76.9437C197.894 76.8169 200.335 75.4183 200.51 75.3178C202.198 74.3526 204.073 73.2678 205.448 71.8696C206.807 70.4875 203.702 73.6516 203.498 73.8885C202.194 75.399 200.712 76.5761 202.707 74.2101C204.162 72.4839 205.741 71.5481 202.637 73.4418C202.614 73.4556 199.617 74.9902 199.72 74.764C200.139 73.84 201.893 73.0146 202.672 72.4771C203.778 71.714 207.936 69.3784 204.306 70.7261C202.709 71.3188 199.416 72.0492 202.689 71.4944" stroke="url(#paint5_linear_2179_9519)" stroke-width="3.90778" stroke-linecap="round"/>
<path d="M208.381 84.0366C208.433 84.466 210.274 85.3344 210.63 85.7518C213.045 88.5825 213.406 90.5344 214.214 94.0954C214.255 94.2738 208.179 92.7092 207.291 91.2368C206.153 89.3491 205.714 86.5833 205.85 84.3582C205.88 83.8767 208.481 86.9616 208.697 87.3241C208.999 87.8306 210.302 89.6543 210.208 89.5931C209.756 89.2978 207.409 86.7763 208.486 87.3241C209.554 87.867 211.626 88.9267 212.106 90.1469C212.362 90.799 208.704 89.3524 208.363 89.0571C206.881 87.7732 210.535 89.3761 210.841 89.5752C213.391 91.2385 212.026 91.3147 209.962 90.7901" stroke="url(#paint6_linear_2179_9519)" stroke-width="3.90778" stroke-linecap="round"/>
<path d="M64.787 15.2152C65.226 15.2152 65.5055 14.8237 65.894 14.9115C67.7542 15.3318 65.2491 18.3892 64.8573 18.9672C61.0406 24.5965 54.4656 27.8837 49.6228 32.4385C46.908 34.9918 44.1265 37.5258 41.6278 40.2997C39.0819 43.1261 37.3131 46.3887 35.0561 49.4295C30.8579 55.0854 26.7808 60.9968 22.8966 66.885C19.8114 71.5619 16.7539 76.094 13.3026 80.4992C11.2681 83.0961 9.81229 86.7328 8.78668 89.8612C8.14666 91.8135 7.95812 93.1961 8.80425 95.1318C9.28861 96.2399 10.7282 96.6858 11.0183 97.8654" stroke="url(#paint7_linear_2179_9519)" stroke-width="3.90778" stroke-linecap="round"/>
<path d="M56.8791 26.1496C57.4523 26.02 57.8756 25.0521 58.1091 24.5773C59.8251 21.0877 61.6928 17.5369 62.379 13.6609C62.8495 11.0029 62.5722 8.14955 62.5722 5.46023C62.5722 3.65822 62.7589 2.92109 61.1665 4.35251C57.4556 7.68829 54.4609 13.3136 56.4398 18.5027C56.965 19.88 57.6483 21.2214 58.4429 22.4333C59.0362 23.3383 58.1794 20.2692 58.1794 19.1817C58.1794 17.1467 58.7768 11.0721 58.7768 13.1071C58.7768 14.5845 58.5075 18.9493 58.2145 17.5022C57.8586 15.7443 58.4253 13.0334 58.9876 11.3562C59.168 10.8183 61.2719 6.83755 61.2719 9.03352C61.2719 10.3711 60.9674 12.7404 60.0419 13.786C59.8298 14.0256 60.1098 9.86322 60.2879 9.28366C61.1591 6.4491 60.7556 10.5693 60.6042 11.3562C60.4457 12.1802 59.527 16.5017 58.7768 16.5017" stroke="url(#paint8_linear_2179_9519)" stroke-width="3.90778" stroke-linecap="round"/>
<path d="M47.3929 34.8327C47.4672 35.4374 48.0787 34.8438 48.3417 34.6719C49.7584 33.7458 51.2251 33.6603 52.9279 33.5641C55.279 33.4313 57.5873 34.2274 59.9389 34.1895C60.6464 34.178 61.8035 33.3912 62.3989 33.5641C63.423 33.8617 60.9647 35.9835 60.835 36.0833C58.6154 37.7912 54.954 39.5935 52.1372 38.6918C50.3104 38.1071 48.678 37.4815 46.9536 36.7801C45.991 36.3886 49.027 36.7622 50.0637 36.7622C51.9686 36.7622 53.8162 36.841 55.6866 36.4406C56.9318 36.1741 58.1638 36.2129 56.1259 36.6014C54.6159 36.8893 50.0092 37.2013 51.5397 37.066C53.1416 36.9243 57.9461 36.9934 56.3543 36.7622C54.8336 36.5413 53.3586 36.4406 51.8209 36.4406" stroke="url(#paint9_linear_2179_9519)" stroke-width="3.90778" stroke-linecap="round"/>
<path d="M35.6877 46.4099C38.1501 46.0969 37.3355 32.4397 37.2692 30.08C37.255 29.5741 32.5133 34.6931 32.0329 35.9401C30.6431 39.5471 31.5876 42.5624 34.1063 45.1235C35.4125 46.4517 34.2524 41.487 34.2469 40.8713C34.2451 40.6747 34.4831 37.4533 34.6686 38.6558C34.8229 39.656 35.2906 42.4837 34.6686 41.6931C33.2818 39.9305 36.014 34.9416 36.25 36.3332C36.3604 36.9842 36.6058 39.0467 35.8283 39.442C34.9158 39.9059 36.3366 37.4319 36.6366 36.4404" stroke="url(#paint10_linear_2179_9519)" stroke-width="3.90778" stroke-linecap="round"/>
<path d="M29.3625 59.9172C31.6013 57.8684 35.6549 57.836 38.4645 58.2378C39.0214 58.3174 41.9165 58.2736 41.5571 59.1668C40.9138 60.7657 39.2226 62.3861 37.6035 62.9188C35.2357 63.6977 32.7921 62.9907 30.8033 61.7039C28.4545 60.184 34.1849 60.5604 35.2665 60.5604C37.4109 60.5604 36.6226 60.5604 34.9502 60.5604C32.5987 60.5604 37.1713 60.1522 37.7265 60.3103C39.105 60.7027 32.0075 60.5604 33.439 60.5604C35.3511 60.5604 41.0689 61.0676 39.1673 60.8641C35.1917 60.4386 30.7202 60.882 27.1484 60.882" stroke="url(#paint11_linear_2179_9519)" stroke-width="3.90778" stroke-linecap="round"/>
<path d="M19.8745 69.565C21.8506 67.4302 21.4689 63.4373 21.6317 60.8104C21.6708 60.1792 22.1914 53.0556 20.6828 55.5219C18.8467 58.5237 15.6189 61.6934 16.8874 65.5629C17.0485 66.0542 18.1999 68.2429 18.7675 68.2429C19.0989 68.2429 18.9301 63.7878 18.9432 63.4546C19.0352 61.118 20.0813 59.0828 19.7164 62.7936C19.3161 66.8636 19.9973 61.0468 20.5071 59.5955" stroke="url(#paint12_linear_2179_9519)" stroke-width="3.90778" stroke-linecap="round"/>
<path d="M14.8145 79.5345C15.542 80.3668 15.6073 80.2208 16.2553 79.3737C18.2974 76.7042 20.7294 75.4225 23.7232 74.3354C25.3027 73.7618 26.6008 72.1025 28.2039 71.709C28.8359 71.5539 27.7973 74.2745 27.6241 74.5319C26.6748 75.9426 25.5635 77.3484 24.1098 78.2481C22.6309 79.1634 20.657 79.8561 18.9262 79.8561C16.7265 79.8561 21.1714 78.6141 22.1593 78.1767C22.4789 78.0352 24.6115 76.965 24.2152 77.0153C23.1313 77.1531 20.9353 79.5519 21.2808 78.4983C21.5437 77.6964 26.5643 75.8241 24.6193 76.3186" stroke="url(#paint13_linear_2179_9519)" stroke-width="3.90778" stroke-linecap="round"/>
<path d="M7.22232 91.755C7.22232 90.0552 7.15083 89.1898 6.04503 87.6994C5.01714 86.3139 3.3402 85.0617 3.14573 83.2327C3.01715 82.0234 3.07386 81.0734 2.86459 82.9648C2.42613 86.9277 2.12376 88.8353 5.76389 90.7545C7.35475 91.5933 8.13743 91.0947 6.27346 90.1471" stroke="url(#paint14_linear_2179_9519)" stroke-width="3.90778" stroke-linecap="round"/>
<path d="M202.056 138.065C201.689 141.05 192.143 139.582 190.283 138.887C184.447 136.707 179.231 133.043 174.574 128.882C168.292 123.268 162.496 119.13 154.789 116.214C154.768 116.206 146.073 113.996 146.073 114.088C146.073 116.497 149.447 118.049 151.292 118.465C153.616 118.991 156.139 118.769 158.549 118.769C160.232 118.769 157.153 118.769 156.651 118.769C155.257 118.769 153.863 118.769 152.469 118.769C150.706 118.769 149.066 118.31 147.795 117.018C147.413 116.629 143.226 114.267 145.124 113.302" stroke="url(#paint15_linear_2179_9519)" stroke-width="3.90778" stroke-linecap="round"/>
<path d="M166.315 120.699C166.315 117.071 165.115 114.249 165.998 110.55C166.108 110.092 167.056 105.279 168.054 106.745C169.165 108.376 169.478 111.74 169.478 113.695C169.478 115.738 168.536 117.211 167.58 118.912C166.978 119.982 167.264 116.52 167.264 116.125C167.264 115.457 167.58 110.282 167.58 112.552C167.58 114.419 166.631 116.12 166.631 117.804" stroke="url(#paint16_linear_2179_9519)" stroke-width="3.90778" stroke-linecap="round"/>
<path d="M170.744 129.382C168.027 129.382 165.69 129.082 163.012 130.418C162.059 130.893 159 131.584 160.06 131.633C160.984 131.676 161.913 131.607 162.837 131.633C166.195 131.728 169.757 132.816 172.009 129.382" stroke="url(#paint17_linear_2179_9519)" stroke-width="3.90778" stroke-linecap="round"/>
<path d="M180.231 133.562C180.004 131.485 179.164 129.429 179.001 127.273C178.795 124.551 179.687 122.537 180.213 119.948C180.246 119.788 181.235 117.427 181.566 117.697C182.94 118.814 183.078 121.703 183.078 123.271C183.078 125.337 183.512 128.111 182.445 129.971C182.217 130.369 181.594 131.878 181.197 132.079C180.616 132.375 181.18 130.757 181.18 130.096C181.18 128.517 181.252 126.918 181.11 125.344C181.025 124.404 180.214 122.12 181.18 123.593" stroke="url(#paint18_linear_2179_9519)" stroke-width="3.90778" stroke-linecap="round"/>
<path d="M190.353 141.281C190.5 141.281 188.815 140.951 188.385 140.959C186.503 140.993 183.822 141.136 182.305 142.389C181.163 143.332 180.405 144.685 179.248 145.605C177.825 146.735 175.327 147.027 178.281 146.426C179.813 146.115 181.351 145.985 182.903 145.712C184.793 145.379 186.558 144.713 187.682 143.032C188.095 142.414 189.059 140.645 188.754 139.869C188.752 139.864 186.997 141.177 186.821 141.281C185.607 141.996 184.262 142.851 182.938 143.335C181.062 144.022 182.232 143.645 182.446 143.21" stroke="url(#paint19_linear_2179_9519)" stroke-width="3.90778" stroke-linecap="round"/>
<path d="M196.678 139.995C198.553 137.85 195.276 132.497 194.077 130.668C193.477 129.753 193.802 128.377 193.339 129.721C192.897 131.008 192.25 132.322 192.25 133.706C192.25 135.54 192.64 137.306 194.534 137.994C196.032 138.537 194.93 137.976 194.446 137.207C193.63 135.91 193.199 134.457 193.199 132.919" stroke="url(#paint20_linear_2179_9519)" stroke-width="3.90778" stroke-linecap="round"/>
<path d="M99.579 151.572C99.579 152.418 99.6391 152.893 98.9289 153.466C95.5149 156.219 91.9302 157.396 87.5953 156.539C81.8361 155.4 76.5979 149.255 73.4678 144.568C70.2799 139.794 67.8111 134.93 63.5048 130.99C59.5486 127.369 53.737 127.431 48.7447 126.97C40.3717 126.196 33.2721 129.268 25.2165 130.847C22.4305 131.393 18.5835 131.937 15.7982 131.15C13.6758 130.551 14.1332 127.437 14.1816 125.665C14.2062 124.766 16.0949 122.016 16.7119 123.271" stroke="url(#paint21_linear_2179_9519)" stroke-width="3.90778" stroke-linecap="round"/>
<path d="M90.089 156.396C89.9924 157.083 87.8283 154.179 87.7696 154.073C86.3765 151.567 85.9773 150.061 85.9773 147.355C85.9773 145.164 85.3468 138.708 86.0476 140.781C86.9658 143.497 89.4842 145.597 90.5283 148.374C91.2512 150.296 91.5402 152.244 90.3877 154.002C88.5947 156.736 89.3202 152.49 88.8063 150.661C88.6296 150.032 87.3662 147.143 88.244 149.374C88.4311 149.85 89.7658 152.275 89.7024 151.84C89.474 150.272 89.223 148.204 88.6657 146.73C88.5163 146.335 88.2213 147.478 87.875 147.713" stroke="url(#paint22_linear_2179_9519)" stroke-width="3.90778" stroke-linecap="round"/>
<path d="M78.0708 152.215C77.899 150.642 74.5774 150.102 73.5725 149.857C70.5728 149.123 68.1649 150.822 65.2788 150.929C62.6894 151.024 65.5435 151.44 66.6845 152.287C67.8287 153.135 68.5865 153.823 70.0934 153.823C72.5578 153.823 74.5762 153.213 76.876 152.465C77.2747 152.335 72.0872 152.251 71.0071 152.144C70.1809 152.062 67.9794 152.366 68.5471 151.751C68.7693 151.51 69.6618 151.492 69.4081 151.286C69.0515 150.996 66.2745 151.25 66.0519 151.25" stroke="url(#paint23_linear_2179_9519)" stroke-width="3.90778" stroke-linecap="round"/>
<path d="M65.4199 131.311C65.4199 132.638 64.84 131.154 64.717 130.668C63.9838 127.769 63.2059 125.302 63.2059 122.307C63.2059 120.502 62.9134 117.075 63.9966 115.607C64.7639 114.567 68.0936 120.434 68.1962 121.342C68.5621 124.579 67.5966 126.344 66.5093 129.239C65.2479 132.598 65.7362 128.644 65.7362 127.077C65.7362 125.106 65.7362 123.134 65.7362 121.163C65.7362 120.711 65.5717 123.423 65.5956 123.861C65.8389 128.313 66.0887 121.379 65.4199 120.699" stroke="url(#paint24_linear_2179_9519)" stroke-width="3.90778" stroke-linecap="round"/>
<path d="M51.5033 128.095C51.4357 128.645 49.1898 129.249 48.8324 129.418C46.0722 130.718 43.4692 131.959 41.3645 134.242C40.4186 135.267 36.7792 137.979 39.9061 136.707C42.215 135.768 45.1684 136.4 47.2509 135.117C49.3912 133.798 50.1969 131.847 51.3275 129.757C52.434 127.712 50.0267 130.277 49.465 130.74C48.8125 131.277 44.6654 133.769 45.5465 133.366C49.0129 131.78 45.4777 133.088 43.9124 133.884" stroke="url(#paint25_linear_2179_9519)" stroke-width="3.90778" stroke-linecap="round"/>
<path d="M41.3818 125.844C43.326 125.597 39.2889 122.19 37.5161 121.342C36.4552 120.834 35.4894 120.232 34.4235 119.734C33.8998 119.489 31.8559 118.215 31.3309 118.269C30.8559 118.317 32.0273 121.655 32.2798 121.985C32.8375 122.714 34.3097 123.721 35.1967 123.986C36.2269 124.294 37.1569 124.688 38.219 124.951C38.5853 125.041 40.3153 125.201 39.1678 125.201" stroke="url(#paint26_linear_2179_9519)" stroke-width="3.90778" stroke-linecap="round"/>
<path d="M27.1485 131.311C24.2961 131.311 20.4646 133.882 18.3627 135.671C17.7417 136.2 14.72 138.728 16.3069 138.19C19.0159 137.272 21.7864 136.572 24.4425 135.492C26.1451 134.8 29.394 129.993 28.0973 131.311" stroke="url(#paint27_linear_2179_9519)" stroke-width="3.90778" stroke-linecap="round"/>
<defs>
<linearGradient id="paint0_linear_2179_9519" x1="182.808" y1="25.8279" x2="182.808" y2="82.1715" gradientUnits="userSpaceOnUse">
<stop stop-color="#D39F6F"/>
<stop offset="1" stop-opacity="0.85"/>
</linearGradient>
<linearGradient id="paint1_linear_2179_9519" x1="165.66" y1="28.5496" x2="165.66" y2="35.2549" gradientUnits="userSpaceOnUse">
<stop stop-color="#D39F6F"/>
<stop offset="1" stop-opacity="0.85"/>
</linearGradient>
<linearGradient id="paint2_linear_2179_9519" x1="161.922" y1="42.8726" x2="161.922" y2="57.2937" gradientUnits="userSpaceOnUse">
<stop stop-color="#D39F6F"/>
<stop offset="1" stop-opacity="0.85"/>
</linearGradient>
<linearGradient id="paint3_linear_2179_9519" x1="179.926" y1="53.1721" x2="179.926" y2="59.6214" gradientUnits="userSpaceOnUse">
<stop stop-color="#D39F6F"/>
<stop offset="1" stop-opacity="0.85"/>
</linearGradient>
<linearGradient id="paint4_linear_2179_9519" x1="186.707" y1="70.8435" x2="186.707" y2="83.444" gradientUnits="userSpaceOnUse">
<stop stop-color="#D39F6F"/>
<stop offset="1" stop-opacity="0.85"/>
</linearGradient>
<linearGradient id="paint5_linear_2179_9519" x1="202.238" y1="67.0198" x2="202.238" y2="77.0949" gradientUnits="userSpaceOnUse">
<stop stop-color="#D39F6F"/>
<stop offset="1" stop-opacity="0.85"/>
</linearGradient>
<linearGradient id="paint6_linear_2179_9519" x1="210.02" y1="84.0366" x2="210.02" y2="94.1094" gradientUnits="userSpaceOnUse">
<stop stop-color="#D39F6F"/>
<stop offset="1" stop-opacity="0.85"/>
</linearGradient>
<linearGradient id="paint7_linear_2179_9519" x1="37.405" y1="14.8987" x2="37.405" y2="97.8654" gradientUnits="userSpaceOnUse">
<stop stop-color="#D39F6F"/>
<stop offset="1" stop-opacity="0.85"/>
</linearGradient>
<linearGradient id="paint8_linear_2179_9519" x1="59.232" y1="3.59814" x2="59.232" y2="26.1496" gradientUnits="userSpaceOnUse">
<stop stop-color="#D39F6F"/>
<stop offset="1" stop-opacity="0.85"/>
</linearGradient>
<linearGradient id="paint9_linear_2179_9519" x1="54.7077" y1="33.5393" x2="54.7077" y2="38.9323" gradientUnits="userSpaceOnUse">
<stop stop-color="#D39F6F"/>
<stop offset="1" stop-opacity="0.85"/>
</linearGradient>
<linearGradient id="paint10_linear_2179_9519" x1="34.4207" y1="30.0449" x2="34.4207" y2="46.4099" gradientUnits="userSpaceOnUse">
<stop stop-color="#D39F6F"/>
<stop offset="1" stop-opacity="0.85"/>
</linearGradient>
<linearGradient id="paint11_linear_2179_9519" x1="34.3681" y1="58.0361" x2="34.3681" y2="63.2436" gradientUnits="userSpaceOnUse">
<stop stop-color="#D39F6F"/>
<stop offset="1" stop-opacity="0.85"/>
</linearGradient>
<linearGradient id="paint12_linear_2179_9519" x1="19.1747" y1="55.0049" x2="19.1747" y2="69.565" gradientUnits="userSpaceOnUse">
<stop stop-color="#D39F6F"/>
<stop offset="1" stop-opacity="0.85"/>
</linearGradient>
<linearGradient id="paint13_linear_2179_9519" x1="21.6101" y1="71.7026" x2="21.6101" y2="80.0891" gradientUnits="userSpaceOnUse">
<stop stop-color="#D39F6F"/>
<stop offset="1" stop-opacity="0.85"/>
</linearGradient>
<linearGradient id="paint14_linear_2179_9519" x1="4.98376" y1="81.8933" x2="4.98376" y2="91.755" gradientUnits="userSpaceOnUse">
<stop stop-color="#D39F6F"/>
<stop offset="1" stop-opacity="0.85"/>
</linearGradient>
<linearGradient id="paint15_linear_2179_9519" x1="173.344" y1="113.302" x2="173.344" y2="139.866" gradientUnits="userSpaceOnUse">
<stop stop-color="#D39F6F"/>
<stop offset="1" stop-opacity="0.85"/>
</linearGradient>
<linearGradient id="paint16_linear_2179_9519" x1="167.576" y1="106.468" x2="167.576" y2="120.699" gradientUnits="userSpaceOnUse">
<stop stop-color="#D39F6F"/>
<stop offset="1" stop-opacity="0.85"/>
</linearGradient>
<linearGradient id="paint17_linear_2179_9519" x1="165.924" y1="129.353" x2="165.924" y2="131.871" gradientUnits="userSpaceOnUse">
<stop stop-color="#D39F6F"/>
<stop offset="1" stop-opacity="0.85"/>
</linearGradient>
<linearGradient id="paint18_linear_2179_9519" x1="181.068" y1="117.676" x2="181.068" y2="133.562" gradientUnits="userSpaceOnUse">
<stop stop-color="#D39F6F"/>
<stop offset="1" stop-opacity="0.85"/>
</linearGradient>
<linearGradient id="paint19_linear_2179_9519" x1="183.632" y1="139.869" x2="183.632" y2="146.732" gradientUnits="userSpaceOnUse">
<stop stop-color="#D39F6F"/>
<stop offset="1" stop-opacity="0.85"/>
</linearGradient>
<linearGradient id="paint20_linear_2179_9519" x1="194.747" y1="129.16" x2="194.747" y2="139.995" gradientUnits="userSpaceOnUse">
<stop stop-color="#D39F6F"/>
<stop offset="1" stop-opacity="0.85"/>
</linearGradient>
<linearGradient id="paint21_linear_2179_9519" x1="56.8439" y1="122.949" x2="56.8439" y2="156.814" gradientUnits="userSpaceOnUse">
<stop stop-color="#D39F6F"/>
<stop offset="1" stop-opacity="0.85"/>
</linearGradient>
<linearGradient id="paint22_linear_2179_9519" x1="88.4396" y1="140.376" x2="88.4396" y2="156.501" gradientUnits="userSpaceOnUse">
<stop stop-color="#D39F6F"/>
<stop offset="1" stop-opacity="0.85"/>
</linearGradient>
<linearGradient id="paint23_linear_2179_9519" x1="71.1477" y1="149.674" x2="71.1477" y2="153.823" gradientUnits="userSpaceOnUse">
<stop stop-color="#D39F6F"/>
<stop offset="1" stop-opacity="0.85"/>
</linearGradient>
<linearGradient id="paint24_linear_2179_9519" x1="65.7225" y1="115.484" x2="65.7225" y2="131.849" gradientUnits="userSpaceOnUse">
<stop stop-color="#D39F6F"/>
<stop offset="1" stop-opacity="0.85"/>
</linearGradient>
<linearGradient id="paint25_linear_2179_9519" x1="45.1385" y1="128.095" x2="45.1385" y2="137.04" gradientUnits="userSpaceOnUse">
<stop stop-color="#D39F6F"/>
<stop offset="1" stop-opacity="0.85"/>
</linearGradient>
<linearGradient id="paint26_linear_2179_9519" x1="36.5589" y1="118.267" x2="36.5589" y2="125.844" gradientUnits="userSpaceOnUse">
<stop stop-color="#D39F6F"/>
<stop offset="1" stop-opacity="0.85"/>
</linearGradient>
<linearGradient id="paint27_linear_2179_9519" x1="22.1236" y1="131.084" x2="22.1236" y2="138.265" gradientUnits="userSpaceOnUse">
<stop stop-color="#D39F6F"/>
<stop offset="1" stop-opacity="0.85"/>
</linearGradient>
</defs>
</svg>
