<svg width="218" height="149" viewBox="0 0 218 149" fill="none" xmlns="http://www.w3.org/2000/svg">
<g style="mix-blend-mode:saturation">
<path d="M27.2451 121.17C28.0163 121.43 28.6947 121.985 29.4156 122.351C30.5067 122.905 31.5887 123.142 32.7919 123.354C34.1412 123.592 35.3941 123.727 36.7618 123.727" stroke="#2B8258" stroke-width="8.53779" stroke-linecap="round"/>
<path d="M4.87891 90.1341C4.87891 66.6957 20.3967 46.0892 42.9231 39.6143L95.3408 24.5475L129.383 16.4348C164.566 8.05042 198.347 34.7273 198.347 70.8953V72.5249C198.347 76.4044 198.863 80.2668 199.881 84.0105V84.0105C208.16 114.464 182.475 143.408 151.253 138.809L135.354 136.467C130.841 135.802 126.262 135.709 121.725 136.189L62.9777 142.408C31.9307 145.694 4.87891 121.355 4.87891 90.1341V90.1341Z" fill="#C3C3C3"/>
<path d="M4.87891 82.5781C4.87891 60.9992 19.3787 42.113 40.2254 36.5391L93.355 22.3333L131.662 13.8413C163.711 6.73672 194.1 31.1271 194.1 63.9539V65.6522C194.1 69.399 194.634 73.1267 195.685 76.723V76.723C203.707 104.172 180.781 130.775 152.448 126.892L132.004 124.091C127.911 123.53 123.765 123.451 119.653 123.856L57.2053 130.005C29.1751 132.765 4.87891 110.744 4.87891 82.5781V82.5781Z" fill="#969696"/>
<path d="M25.7884 43.343L42.0236 56.3661L53.2602 52.7429L61.9594 66.0005L75.4614 54.4722L83.0732 62.3773L127.225 76.2112L83.0732 67.6474H75.4614L61.9594 80.2461L48.5481 76.2112L35.4086 82.8812L30.6965 66.0005L12.4824 56.3661L25.7884 43.343Z" fill="#7D7D7D"/>
<path d="M118.067 25.9727L132.237 33.2516C132.237 33.2516 176.129 33.2516 168.007 38.8763C159.886 44.501 148.308 60.217 143.642 52.4417C138.976 44.6664 122.733 45.4936 122.733 38.8763C122.733 32.2591 115.993 49.6294 115.993 49.6294L118.067 25.9727Z" fill="#7D7D7D"/>
<path d="M147.961 110.012C147.961 103.064 141.222 88.0096 141.222 88.0096L136.556 68.3232C146.342 76.9157 149.69 86.6862 161.613 90.3256C173.537 93.9651 149.081 98.4318 156.947 104.222C164.813 110.012 174.919 123.743 174.919 123.743L155.219 127.217L136.556 123.743H117.375C129.32 118.381 147.961 116.96 147.961 110.012Z" fill="#7D7D7D"/>
<path d="M175.672 87.2383C176.392 87.2383 177.547 86.1451 178.257 85.8242C179.327 85.3403 180.935 85.1172 182.134 85.1172C184.252 85.1172 185.951 85.669 187.858 86.5313C190.575 87.7595 194.777 88.4226 197.747 87.8079C198.252 87.7033 199.092 87.5208 197.993 87.6017C196.791 87.6902 195.748 88.3357 194.69 88.8292C193.41 89.4262 191.92 89.9444 190.546 90.2826C189.152 90.6257 187.56 90.9472 186.114 90.7343C184.605 90.512 183.208 89.9579 181.724 89.6737C180.22 89.3857 178.72 89.3595 177.19 89.3595C175.363 89.3595 176.817 88.9561 177.744 88.3971C178.576 87.8955 181.467 87.2197 179.447 88.7114C178.446 89.4505 179.906 87.7768 180.114 87.6017C181.563 86.3775 181.284 87.7317 179.857 88.1811C179.202 88.3872 177.511 88.0744 178.483 87.2285C178.726 87.0164 180.877 85.993 180.575 86.3938C180.198 86.8955 178.633 86.855 178.934 86.6197C179.242 86.3781 181.333 85.8265 180.842 86.5313" stroke="#247474" stroke-width="3.41512" stroke-linecap="round"/>
<path d="M185.643 88.4757C185.7 88.9109 189.205 89.713 188.812 89.713C187.344 89.713 185.953 89.4605 184.514 89.222C184.01 89.1384 186.906 89.0022 187.387 89.006C188.418 89.014 191.505 89.1827 190.474 89.1827C189.462 89.1827 188.317 89.1448 187.376 88.7506C187.368 88.7473 189.003 88.6597 189.418 88.6524C189.798 88.6458 190.178 88.4953 190.546 88.4953C191.036 88.4953 189.595 88.7247 189.11 88.7899C188.848 88.8252 187.439 88.7082 188.289 88.9274C189.44 89.2241 190.627 89.1827 191.808 89.1827C192.309 89.1827 187.076 88.2652 189.192 88.2989C189.989 88.3116 191.041 88.357 191.787 88.6426C193.243 89.2003 188.64 88.6137 187.089 88.3873C184.623 88.0271 187.641 88.1222 188.443 88.1222C189.414 88.1222 186.012 87.6583 185.622 87.5722C184.831 87.3973 181.532 86.5291 184.166 86.7473C185.082 86.8232 186.005 86.9655 186.904 87.15C186.974 87.1643 188.254 87.4267 187.551 87.4151C186.213 87.393 184.942 86.7277 183.612 86.7277C182.495 86.7277 185.841 87.0653 186.863 87.4937C188.22 88.0619 183.903 87.5919 182.422 87.5919C181.652 87.5919 182.539 87.6547 182.75 87.6901C183.805 87.8669 184.869 87.9807 185.93 88.1222C188.192 88.424 186.75 88.2989 185.366 88.2989C184.981 88.2989 181.519 88.0577 183.304 88.132C184.162 88.1677 185.018 88.2711 185.868 88.3873C186.323 88.4495 187.45 88.6524 186.299 88.6524C184.327 88.6524 182.621 88.0183 181.109 86.8259C180.75 86.543 180.686 86.5365 181.252 86.5313C182.482 86.52 183.779 86.4352 184.996 86.6295C186.452 86.8618 183.117 86.7314 182.637 86.6197C181.187 86.2821 183.053 86.0061 183.55 86.001C185.415 85.9818 185.484 86.5002 183.673 87.1009C182.993 87.3264 181.951 87.9061 181.222 87.9061C180.499 87.9061 182.643 87.5987 183.365 87.5919C183.605 87.5896 184.594 87.6705 183.786 87.9356C182.875 88.2346 181.946 88.0432 181.027 87.9454" stroke="#247474" stroke-width="3.41512" stroke-linecap="round"/>
<path d="M182.873 75.3951C184.699 75.2009 185.31 70.5162 185.499 69.2084C186.096 65.0999 185.828 60.8567 185.828 56.7172C185.828 55.8139 186.229 53.8715 185.787 53.0248C185.686 52.8311 184.945 54.6658 184.905 54.7532C183.791 57.1679 182.475 59.5215 181.673 62.0594C180.177 66.7987 181.766 71.0467 181.766 75.7487" stroke="#247474" stroke-width="3.41512" stroke-linecap="round"/>
<path d="M181.581 70.7993C182.508 70.7993 182.32 71.4272 182.32 72.1938C182.32 74.4674 182.695 70.5689 182.966 70.1021C183.429 69.3034 183.058 71.9282 183.058 72.8419C183.058 73.9597 183.093 70.6019 183.243 69.4933C183.499 67.5956 183.398 70.0875 183.335 70.6815C183.311 70.9038 182.657 73.3315 182.545 73.1169C182.315 72.6767 182.946 70.9802 182.853 71.7126C182.741 72.5952 182.685 73.6143 182.361 74.4524C182.203 74.8606 182.497 73.5863 182.648 73.1758C182.782 72.8123 182.841 72.4424 182.956 72.076C182.995 71.9509 182.802 72.4109 182.689 72.4491C182.57 72.4892 182.504 68.5273 182.504 68.0792C182.504 67.9884 182.645 67.0236 182.648 67.0284C182.97 67.6458 182.395 69.0982 182.217 69.7191C181.804 71.162 182.707 66.7624 183.038 65.3001C183.4 63.6952 183.109 67.0253 183.038 67.3427C182.897 67.9682 182.572 69.7566 182.361 69.1496C182.098 68.3957 182.39 67.2735 182.504 66.5178C182.571 66.0803 183.306 61.6725 183.694 61.9907C184.406 62.5747 183.385 66.7976 183.099 67.7551C182.668 69.2001 183.204 64.745 183.427 63.2575C183.831 60.576 183.999 63.5069 183.869 64.5734C183.801 65.1263 183.286 69.4866 183.243 66.8516C183.214 65.1154 183.285 62.7548 184.238 61.2345C185.182 59.7285 183.893 64.7451 183.448 66.449C183.275 67.1095 183.243 67.311 183.243 66.5374C183.243 65.0653 183.224 63.5965 183.468 62.138C183.563 61.5718 184.579 57.8717 184.33 60.3114C184.247 61.126 184.027 61.9494 183.838 62.7468C183.837 62.7513 183.824 61.5937 183.879 61.2738C184.049 60.2847 184.306 59.2878 184.607 58.3278C184.775 57.7915 184.644 60.0223 184.658 60.2918C184.763 62.2942 184.535 64.2451 184.535 66.2428C184.535 66.8778 184.535 63.7027 184.535 64.3377C184.535 65.7733 184.55 67.2246 183.899 68.5604C183.703 68.964 183.854 66.9225 183.899 66.6454C184.303 64.1635 184.363 66.4982 184.351 67.598C184.344 68.1775 183.797 69.5097 183.797 68.2166C183.797 67.2244 184.032 67.0231 183.427 67.7944" stroke="#247474" stroke-width="3.41512" stroke-linecap="round"/>
<path d="M172.194 103.775C172.029 104.072 172.097 103.603 172.098 103.49C172.11 102.261 172.259 101.006 171.944 99.8012C171.485 98.0441 170.447 96.5048 169.892 94.7761C169.338 93.05 168.657 91.4097 168.208 89.6541C168.056 89.0594 167.929 88.4538 167.835 87.8481C167.82 87.7522 167.801 86.8206 167.686 87.1441C166.871 89.4377 166.39 92.0401 166.343 94.4598C166.322 95.5259 166.142 96.5538 166.391 97.6126C166.584 98.4316 167.165 98.9479 167.761 99.5308C169.272 101.01 170.567 102.588 171.523 104.418C171.731 104.817 172.194 105.526 172.194 105.979C172.194 106.154 172.465 107.022 172.578 106.806" stroke="#247474" stroke-width="3.41512" stroke-linecap="round"/>
<path d="M171.427 102.306C170.803 101.05 169.997 99.8355 169.433 98.5614C169.096 97.7979 170.195 100.052 170.531 100.816C170.938 101.741 169.585 99.022 169.22 98.0818C169.084 97.7306 168.847 97.2996 168.847 96.9136C168.847 96.7757 169.4 97.5352 169.449 97.6227C169.551 97.8035 169.611 97.935 169.695 98.1227C169.766 98.2825 170.062 98.6297 169.881 98.6124C169.578 98.5834 169.105 97.3036 169.028 97.0819C168.807 96.441 168.724 95.7956 168.746 95.1229C168.769 94.4236 168.914 94.5753 168.975 95.179C169.001 95.4353 169.282 97.7599 168.741 97.4696C167.929 97.0343 167.945 94.9471 168.261 94.2556C168.488 93.7588 168.541 94.7318 168.549 94.8066C168.64 95.6316 168.735 96.4711 168.682 97.3013C168.638 97.9995 168.437 97.9058 168.208 97.3268C167.829 96.3685 167.833 95.19 167.92 94.1842C167.963 93.6876 168.103 93.2665 168.213 93.9904C168.323 94.718 168.357 95.4498 168.357 96.184C168.357 96.2097 168.396 97.0354 168.24 96.633C167.921 95.8113 167.852 94.8974 167.803 94.0312C167.79 93.8125 167.671 91.6729 167.968 92.7405C168.043 93.0085 168.157 95.0333 167.973 93.8679C167.888 93.3283 167.877 92.7851 167.877 92.2405C167.877 91.7121 167.877 92.0621 167.877 92.3783C167.877 92.5537 167.973 94.2602 167.973 93.3986" stroke="#247474" stroke-width="3.41512" stroke-linecap="round"/>
<path d="M167.494 91.562C167.494 91.8977 167.561 92.2376 167.59 92.5721" stroke="#247474" stroke-width="3.41512" stroke-linecap="round"/>
<path d="M169.892 126.549C169.987 126.741 169.988 127.031 169.988 126.661C169.988 125.895 170.272 125.062 170.542 124.355C171.523 121.79 174.129 119.818 176.308 118.203C178.513 116.569 180.66 114.721 181.909 112.29C182.048 112.02 182.192 111.409 182.49 111.244C182.552 111.21 182.554 111.963 182.554 112.03C182.554 113.193 182.595 114.361 182.458 115.519C182.171 117.944 181.589 120.735 179.41 122.284C177.633 123.546 175.543 123.591 173.511 124.202C171.965 124.667 170.736 125.19 169.604 126.273" stroke="#247474" stroke-width="3.41512" stroke-linecap="round"/>
<path d="M175.36 121.039C174.296 122.09 173.384 123.287 172.307 124.319C171.743 124.859 172.293 123.834 172.376 123.712C172.999 122.788 173.662 121.905 174.555 121.207C175.122 120.765 174.755 121.412 174.582 121.692C174.068 122.522 173.486 123.342 172.791 124.044C172.091 124.752 172.842 123.667 173.037 123.447C174.184 122.148 175.422 120.618 176.847 119.595C177.927 118.82 176.706 120.589 176.575 120.794C176.059 121.603 175.606 122.443 175.04 123.222C174.772 123.592 174.744 123.593 174.998 123.202C175.897 121.812 176.664 120.286 177.769 119.029C178.146 118.6 178.031 119.252 177.987 119.493C177.832 120.351 177.365 121.104 176.991 121.886C176.781 122.324 176.587 122.506 176.879 121.906C177.399 120.837 177.924 119.754 178.504 118.713C178.609 118.525 179.196 117.403 179.607 117.585C179.943 117.733 179.08 119.391 179.005 119.57C178.816 120.017 178.458 121.526 178.009 121.784C177.908 121.841 178.046 121.561 178.088 121.457C178.259 121.038 178.452 120.623 178.643 120.212C179.183 119.047 180.723 115.624 180.636 116.896C180.565 117.922 179.96 118.978 179.586 119.927C179.504 120.135 179.003 121.356 179.005 121.253C179.025 120.379 179.446 119.452 179.719 118.631C180.035 117.682 180.37 116.738 180.86 115.856C180.99 115.62 181.274 115.074 181.302 115.657C181.337 116.401 181.261 117.169 181.094 117.896C180.898 118.751 180.896 118.492 180.934 117.753C180.984 116.791 181.157 115.787 181.456 114.866C181.612 114.386 181.634 114.464 181.579 114.922C181.503 115.55 181.206 116.126 181.019 116.723" stroke="#247474" stroke-width="3.41512" stroke-linecap="round"/>
<path d="M165 136.558C165.026 137.149 165.352 136.351 165.405 136.17C165.969 134.263 165.851 131.847 165.24 129.962C164.883 128.86 164.291 127.879 164.052 126.732C163.781 125.435 163.577 124.017 163.561 122.692C163.561 122.656 163.562 121.811 163.54 121.814C162.995 121.909 162.504 123.249 162.33 123.631C161.57 125.298 161.385 126.985 161.238 128.773C161.124 130.161 161.153 131.35 162.123 132.472C162.454 132.855 162.723 133.27 162.981 133.701C163.188 134.049 163.552 134.227 163.775 134.558C164.111 135.058 164.385 135.575 164.659 136.099C164.743 136.26 164.801 136.952 164.904 136.558" stroke="#247474" stroke-width="3.41512" stroke-linecap="round"/>
<path d="M163.37 132.334C163.15 131.594 162.879 130.855 162.704 130.105C162.596 129.639 163.15 130.957 163.37 131.385C163.613 131.856 163.799 132.349 163.994 132.839C164.125 133.168 164.394 134.176 164.394 133.824C164.394 133.588 164.051 133.2 163.946 133.002C163.674 132.49 163.507 131.954 163.37 131.395C163.305 131.128 162.982 129.204 163.12 129.38C163.944 130.432 164.386 131.79 164.937 132.982C165.121 133.379 165.596 134.032 164.98 133.359C164.106 132.407 163.382 131.395 163.013 130.161C162.823 129.524 162.763 128.833 162.795 128.171C162.799 128.083 163.418 129.384 163.488 129.62C163.536 129.783 164.127 131.55 163.637 130.702C163.124 129.814 162.896 128.674 162.816 127.671C162.642 125.492 163.827 128.983 163.349 129.191C162.892 129.39 162.795 124.939 162.795 128.477" stroke="#247474" stroke-width="3.41512" stroke-linecap="round"/>
<path d="M43.674 54.5971C43.482 54.8072 43.7489 54.5441 43.807 54.4698C44.4612 53.6347 44.5804 52.3981 44.6611 51.3935C44.8727 48.76 44.4541 46.3018 44.0381 43.713C43.8412 42.4882 43.9867 41.2577 43.919 40.0268C43.9007 39.6938 43.9401 38.9142 43.478 39.3566C42.3875 40.4006 41.9692 42.4197 41.2868 43.7264C39.8657 46.4473 40.257 49.7021 41.4688 52.4257C42.0504 53.7329 42.4139 54.7502 42.4139 56.1654C42.4139 56.47 42.5 56.9274 42.2879 57.1305" stroke="#247474" stroke-width="3.41512" stroke-linecap="round"/>
<path d="M42.1613 53.2703C42.0501 52.1464 41.9786 51.0208 41.9373 49.8925C41.9355 49.8444 41.9049 48.5774 42.0073 49.3831C42.1432 50.4533 42.2094 51.5384 42.4133 52.6001C42.453 52.8066 42.4377 52.1788 42.4133 51.9701C42.3272 51.2329 42.2266 50.4978 42.1613 49.7584C42.0852 48.8973 42.0415 48.0356 42.0353 47.1714C42.034 46.9904 41.9045 46.1037 42.0633 45.9516C42.0929 45.9233 42.5989 47.2973 42.6093 47.3323C42.8354 48.092 43.0058 48.8722 43.1414 49.6512C43.2754 50.4207 43.4457 51.5016 43.1414 50.0801C42.7222 48.1216 42.294 42.1298 42.6373 44.1019C42.8582 45.3704 43.0724 46.664 43.1414 47.9489C43.1869 48.7955 43.1972 49.9087 43.0714 48.3912C42.9486 46.9096 42.7536 45.4267 42.5393 43.9544C42.319 42.4405 42.4905 44.5809 42.5393 44.9731C42.6906 46.1878 43.0167 47.3779 43.0434 48.6057C43.0456 48.7078 42.7258 47.3582 42.6653 47.024C42.6058 46.6946 42.5393 44.4186 42.5393 45.4021C42.5393 46.8497 42.4497 48.4047 42.8474 49.8187C43.2337 51.1925 42.6237 46.9798 42.4273 45.5696C42.3278 44.8552 42.2873 42.6908 42.2873 43.4116C42.2873 43.6126 42.2873 44.2158 42.2873 44.0147C42.2873 43.9104 42.3156 43.2407 42.3573 43.2976C42.6919 43.7552 42.3402 44.4075 42.6023 44.8592C42.861 45.305 42.8642 43.866 42.9104 43.3579C42.9195 43.257 42.9164 44.4846 42.8474 44.8056C42.6771 45.5974 42.6647 44.8185 42.7283 44.4772C42.8972 43.5717 42.7953 45.4851 42.7984 45.6098C42.8369 47.1777 43.0526 48.8526 43.4774 50.3683C43.6642 51.0347 43.5304 48.9755 43.4914 48.7196C43.3079 47.5146 43.4214 49.5202 43.4214 49.8053C43.4214 50.7244 43.5474 53.479 43.5474 52.5599C43.5474 51.9254 43.5474 51.291 43.5474 50.6565C43.5474 50.5448 43.1296 54.0127 42.9174 52.1846" stroke="#247474" stroke-width="3.41512" stroke-linecap="round"/>
<path d="M54.259 35.2651C54.1516 35.5132 53.5029 37.1595 53.5029 36.4715" stroke="#247474" stroke-width="3.41512" stroke-linecap="round"/>
<path d="M54.889 33.8174C54.6813 34.6376 54.4657 35.3767 54.1399 36.1564C53.7985 36.9734 54.685 34.4608 55.141 33.6968" stroke="#247474" stroke-width="3.41512" stroke-linecap="round"/>
<path d="M49.8486 49.8623C51.62 48.3362 53.3408 47.0883 55.6173 46.2968C58.7601 45.2041 61.95 44.9347 65.1523 44.1186C66.5389 43.7653 67.9143 43.2792 69.1428 42.557C69.6374 42.2663 69.1551 42.863 69.0378 43.0128C67.8188 44.5687 66.9089 46.1185 65.0683 47.0876C63.4281 47.9513 61.5697 48.7341 59.6637 48.7766C57.9554 48.8146 56.2868 48.5353 54.5882 48.5353C54.0526 48.5353 50.2267 48.2379 50.2267 48.8972" stroke="#247474" stroke-width="3.41512" stroke-linecap="round"/>
<path d="M61.0635 46.8463C59.8954 47.0418 58.7321 47.2149 57.5491 47.302C56.9616 47.3453 57.0725 47.3547 57.5001 47.2551C59.1836 46.8631 60.8831 46.5275 62.5337 46.0152C62.9696 45.8799 64.5011 45.127 64.9839 45.3048C65.0952 45.3458 64.783 45.4289 64.6759 45.4791C64.2006 45.7014 63.7096 45.883 63.2127 46.0554C62.6389 46.2546 62.0632 46.4826 61.4765 46.6452C61.3787 46.6723 60.7954 46.79 61.2455 46.6988C62.2399 46.4975 63.1254 45.9209 64.0738 45.593C65.3567 45.1495 63.1306 46.0658 62.8697 46.1895C61.3611 46.9046 63.2101 45.7118 63.6398 45.4053C64.2173 44.9934 64.7742 44.575 65.32 44.1252C65.4381 44.0279 66.1872 43.5397 65.621 43.9175C64.6833 44.5431 63.6845 45.0955 62.8557 45.8544C62.1335 46.5157 63.1521 45.7692 63.4578 45.5863C63.6881 45.4485 65.2585 44.6917 64.3399 45.278C64.045 45.4662 63.1037 45.7486 63.9198 45.4523C64.1908 45.3539 65.2305 44.926 65.1659 44.9429C65.0182 44.9815 63.8727 45.4741 64.1228 45.2646C64.4945 44.9533 65.7311 44.1731 65.362 44.4872C65.0479 44.7544 64.5062 44.9161 64.0878 44.9161" stroke="#247474" stroke-width="3.41512" stroke-linecap="round"/>
<path d="M63.4579 45.6399C61.7776 46.1206 59.9833 46.426 58.2353 46.5782C57.5872 46.6346 55.6383 46.7256 56.2891 46.7256C56.8725 46.7256 57.4559 46.7256 58.0392 46.7256C58.142 46.7256 58.8852 46.6829 58.4313 46.7524C58.3468 46.7654 56.5565 46.9239 57.0311 46.6318C57.3296 46.4481 56.3218 46.6003 55.967 46.605C55.3164 46.6136 54.7364 46.7502 54.1328 46.9669" stroke="#247474" stroke-width="3.41512" stroke-linecap="round"/>
<path d="M36.2384 63.7355C36.2677 63.9597 40.363 62.6321 40.8939 62.4688C42.1153 62.0929 43.5419 62.2878 44.8074 62.2878C46.403 62.2878 47.9439 62.6059 49.5259 62.7436C50.8797 62.8614 52.2614 63.0116 53.6214 63.0116C53.8029 63.0116 55.0283 62.9628 54.8535 63.0988C53.2022 64.3832 51.7026 65.4435 49.5539 65.7863C47.7671 66.0714 45.6918 66.4274 43.8833 66.0812C42.5146 65.8191 41.3005 65.1307 39.9488 64.915C38.546 64.6912 37.1056 64.2961 35.7344 64.8212" stroke="#247474" stroke-width="3.41512" stroke-linecap="round"/>
<path d="M41.4054 64.3386C42.3174 64.1039 43.2742 63.8694 44.2267 63.8694C44.8709 63.8694 42.9305 64.0008 42.2945 63.9029C41.4122 63.7672 40.161 63.371 41.9094 63.5477C43.3774 63.6961 44.6927 64.0319 46.1029 64.3319C47.977 64.7305 42.2638 64.233 40.3483 64.1107C40.0895 64.0942 39.3828 64.0581 40.1172 64.0035C41.3565 63.9113 42.6235 63.9954 43.8557 64.1241C44.9476 64.2381 48.1719 64.5456 47.09 64.7273C46.2646 64.8659 45.4459 65.0222 44.6047 65.0423C44.5344 65.044 42.9882 64.8629 43.6106 64.8278C44.8794 64.7564 46.1372 64.704 47.4051 64.5865C47.9064 64.5401 48.9306 64.6524 49.4073 64.3989C49.6741 64.257 48.8831 64.3386 48.8822 64.3386C47.9969 64.3386 47.0808 64.3893 46.2079 64.2179C45.5497 64.0887 46.3953 64.0961 46.558 64.0906C47.519 64.0583 48.468 63.8995 49.4283 63.8627C51.4811 63.7841 48.3834 63.78 47.8461 63.7354C47.0477 63.6691 46.2526 63.5261 45.4518 63.4941C44.7185 63.4649 46.9181 63.563 47.6501 63.6147C48.7159 63.6902 49.7823 63.7941 50.8494 63.8493C51.3875 63.8772 49.9467 63.7458 49.8343 63.7421C49.5451 63.7325 48.3683 63.6282 48.4482 63.6282C49.2601 63.6282 50.1146 63.8963 50.9124 64.0236C52.197 64.2285 49.5126 64.0437 49.1763 64.0035C48.2194 63.889 49.6168 63.6147 49.9743 63.6147" stroke="#247474" stroke-width="3.41512" stroke-linecap="round"/>
<path d="M25.5273 70.6117C26.6373 70.4936 26.9153 68.1779 27.0675 67.4952C27.5299 65.4218 27.0509 63.3425 26.7875 61.269C26.6862 60.4721 26.6935 59.7476 26.7595 58.9501C26.7681 58.8455 26.9286 58.0607 26.7035 58.3938C25.7162 59.8545 24.825 61.5447 23.9802 63.0853C23.2546 64.4083 22.2101 66.6142 22.699 68.152C22.9705 69.0059 23.6603 70.0799 24.5192 70.4911" stroke="#247474" stroke-width="3.41512" stroke-linecap="round"/>
<path d="M23.5107 66.0276C24.0988 66.1332 23.7712 68.4901 23.7908 68.8827C23.8513 70.0996 24.0148 69.6685 24.0148 68.8291C24.0148 68.2383 23.6433 65.5796 24.2668 65.2636C24.2743 65.2598 24.3928 68.1904 24.3928 68.4269C24.3928 68.6305 24.348 70.5635 24.4208 70.0488C24.5688 69.0039 24.5916 67.9494 24.6729 66.8989C24.7122 66.3904 24.8037 65.8897 24.8689 65.3842C24.871 65.3675 24.987 64.8213 24.9949 64.8346C25.1607 65.1124 25.0229 65.8252 25.0229 66.1214C25.0229 66.8631 25.0229 67.6048 25.0229 68.3465C25.0229 69.393 25.0151 69.2022 25.0229 68.2929C25.0382 66.5262 25.0878 64.7317 25.2469 62.9715C25.3481 61.852 25.527 63.1046 25.527 63.5076C25.527 64.7398 25.3045 65.951 25.2749 67.1804C25.249 68.2609 25.1489 66.577 25.1489 66.3359C25.1489 65.5488 24.7885 63.5745 25.3029 62.9178C25.6838 62.4317 25.3521 64.1376 25.2749 64.7408C25.1867 65.4307 25.1635 66.5495 24.7709 67.1133" stroke="#247474" stroke-width="3.41512" stroke-linecap="round"/>
<path d="M13.4304 78.3326C13.3213 78.3326 14.0196 78.099 14.1515 78.0645C15.5016 77.712 16.6051 77.3441 18.0089 77.3675C20.1554 77.4032 21.3483 78.8767 23.0495 79.8875C24.5771 80.7952 25.6977 82.4033 27.642 82.4343C28.0668 82.4411 28.4136 82.3003 27.789 82.1394C26.8089 81.8868 25.4654 82.2624 24.4637 82.374C22.6224 82.5789 20.6933 83.0318 18.856 82.6152C17.4159 82.2887 16.3911 81.6774 15.1246 81.047C13.7032 80.3394 12.5283 79.7803 10.9102 79.7803" stroke="#247474" stroke-width="3.41512" stroke-linecap="round"/>
<path d="M13.8086 79.1771C14.2792 79.0957 15.4586 78.858 15.7548 79.425C15.945 79.7892 15.3284 80.0215 15.0687 80.0215C14.909 80.0215 13.9966 79.7981 14.1376 79.5055C14.3277 79.1113 16.8124 79.6053 17.155 79.6663C19.2252 80.0351 17.524 80.1826 16.5669 79.9344C15.3613 79.6218 14.2291 78.7395 16.2029 78.842C16.4767 78.8562 20.9027 79.2271 20.5293 80.0215C20.173 80.7797 16.7724 79.5707 16.3849 79.1302C16.1611 78.8757 18.3566 79.1756 18.5131 79.2039C19.4454 79.3722 20.698 79.5442 21.3134 80.3298C22.1211 81.3608 19.3593 80.603 19.0452 80.4907C18.3297 80.235 17.675 79.9053 17.043 79.4988C16.9878 79.4633 16.5768 79.2896 16.6929 79.3044C17.4593 79.4022 18.2062 79.632 18.9472 79.8339C20.0898 80.1451 21.5735 80.3409 22.5456 81.0537C22.9807 81.3727 19.8879 81.0741 19.4792 80.933C18.9369 80.7458 18.1023 80.4261 17.715 79.988C17.1533 79.3525 19.4215 80.3101 20.2703 80.4907C21.0897 80.665 21.908 80.8068 22.6996 81.0805C23.4143 81.3275 22.4829 81.2279 22.2165 81.2279C20.8874 81.2279 16.9324 80.7772 18.2611 80.7454C19.8149 80.7082 24.4639 81.0939 22.9096 81.0939C21.3703 81.0939 19.7012 80.7166 18.5971 79.6596" stroke="#247474" stroke-width="3.41512" stroke-linecap="round"/>
<path d="M137.472 34.9986C136.987 34.9057 136.448 34.383 136.07 34.0892C135.117 33.3486 134.248 32.9412 133.096 32.5737C131.311 32.004 128.551 32.5068 126.888 33.2882C124.716 34.3092 122.908 35.8673 120.59 36.6441C119.652 36.9582 120.651 36.7322 121.087 36.6549C121.895 36.5116 122.722 36.5575 123.541 36.5575C126.271 36.5575 129.002 37.3369 131.773 37.3369C132.858 37.3369 135.678 37.0704 136.251 35.9729" stroke="#247474" stroke-width="3.41512" stroke-linecap="round"/>
<path d="M134.419 35.3883C132.317 35.5712 130.246 36.0438 128.109 36.1461C125.662 36.2632 128.903 35.8602 129.489 35.8214C130.779 35.7359 132.381 35.564 133.673 35.7889C135.125 36.0417 130.762 36.3626 129.285 36.3626C129.125 36.3626 126.984 36.3595 127.838 35.6265C128.962 34.6619 132.137 34.7925 133.537 34.6522C133.639 34.642 134.334 34.5844 133.809 34.6089C132.584 34.6661 131.374 34.9188 130.145 34.977C130.056 34.9812 127.96 35.1464 127.906 34.912C127.846 34.6548 130.059 33.9988 130.258 33.9269C131.292 33.5536 134.572 33.0612 133.469 33.1366C131.695 33.258 129.73 34.256 128.042 34.7821C125.829 35.4719 127.851 34.5993 128.833 34.2625C129.103 34.17 131.053 33.4562 130.507 33.6346C128.966 34.1375 127.454 34.7245 125.916 35.2368C122.392 36.4101 126.681 34.8946 127.781 34.3274C127.878 34.2779 126.283 35.17 125.712 35.345C124.151 35.824 123.966 35.6005 125.667 35.1935" stroke="#247474" stroke-width="3.41512" stroke-linecap="round"/>
<path d="M148.871 26.6196C148.672 25.6667 146.838 24.8915 146.09 24.5411C144.852 23.962 143.512 24.0864 142.177 24.0864C139.297 24.0864 136.814 25.2147 134.035 25.7319C132.758 25.9697 133.49 25.6739 134.171 25.8835C134.837 26.0883 135.442 26.4419 136.139 26.6196C137.398 26.9411 138.509 27.6146 139.814 27.8862C142.101 28.3623 143.715 27.0381 145.818 26.8145C146.352 26.7577 147.457 26.5448 148.012 26.3814C148.47 26.2465 150.115 26.4247 149.482 26.4247" stroke="#247474" stroke-width="3.41512" stroke-linecap="round"/>
<path d="M145.004 26.035C143.444 26.0697 141.908 26.1791 140.379 26.4897C139.697 26.6282 141.514 26.0497 141.578 26.035C142.007 25.9359 145.077 25.3923 144.371 25.4937C142.559 25.7539 140.87 25.8401 139.033 25.8401C137.498 25.8401 140.99 25.2359 141.453 25.1473C143.828 24.6927 140.551 25.4905 139.949 25.6345C139.362 25.775 136.808 25.8401 138.694 25.8401C141.047 25.8401 134.444 25.8401 137.676 25.8401" stroke="#247474" stroke-width="3.41512" stroke-linecap="round"/>
<path d="M148.056 30.3219C149.718 31.9125 148.116 34.3813 147.287 35.9945C146.563 37.405 146.012 38.7503 145.512 40.2381C145.24 41.0488 145.352 41.9103 145.161 40.6711C144.952 39.3105 143.995 39.4776 143.488 38.506C143.142 37.8442 143.158 37.2263 143.171 36.4925C143.197 35.0307 144.647 33.5859 145.659 32.617C146.549 31.7649 148.454 28.6808 148.056 29.824C147.581 31.1904 146.974 32.4983 146.53 33.9052C146.082 35.3244 145.646 36.6934 144.89 37.9864C144.128 39.2904 144.567 37.3851 144.72 36.7631C144.949 35.8379 145.845 33.1604 145.817 34.1109C145.799 34.7553 144.437 37.7408 144.302 37.391C144.02 36.657 144.315 34.9986 145.207 34.9986" stroke="#247474" stroke-width="3.41512" stroke-linecap="round"/>
<path d="M155.181 19.6048C156.851 18.8522 157.623 19.9112 157.623 21.5534C157.623 22.4841 157.634 23.4156 157.623 24.3463C157.61 25.5193 157.478 26.6694 157.329 27.8321C157.318 27.9177 157.205 29.4547 157.103 29.4127C154.698 28.4259 153.939 24.3792 154.977 22.3328C155.231 21.8332 155.319 21.2817 155.542 20.7739C155.801 20.1855 155.588 22.2123 155.588 22.5276C155.588 23.7329 155.588 24.9381 155.588 26.1434C155.588 27.3955 155.588 23.6391 155.588 22.3869C155.588 21.4284 155.658 23.921 155.701 24.1731C155.746 24.4393 156.198 27.0533 156.198 25.9269C156.198 25.431 156.315 24.5111 156.097 25.5588C155.984 26.0976 156.198 27.7537 156.198 27.2043" stroke="#247474" stroke-width="3.41512" stroke-linecap="round"/>
<path d="M28.5766 106.317C28.5766 103.316 26.6594 102.444 24.5962 100.666C23.4407 99.6705 21.8673 99.1032 20.5366 98.3277C19.6789 97.8279 18.8277 97.3517 17.9697 96.8663C17.7068 96.7176 16.2104 95.4998 16.4657 96.1843C17.8302 99.8418 21.0163 102.601 24.5057 104.271C25.0841 104.548 29.9609 106.394 30.2049 105.927" stroke="#247474" stroke-width="3.41512" stroke-linecap="round"/>
<path d="M20.6382 102.03C22.8389 102.339 25.4513 103.482 27.3325 104.628C27.8879 104.967 26.0308 104.321 25.478 103.979C24.1562 103.161 22.833 102.377 21.5768 101.467C21.3538 101.306 20.0824 100.388 21.1131 100.991C22.7358 101.94 24.3563 102.95 26.0886 103.708C26.5078 103.892 24.3564 102.75 23.9401 102.528C22.6369 101.834 21.3054 100.958 20.1859 100.017C18.8083 98.8577 21.2609 100.582 21.6107 100.785C22.9054 101.539 24.2147 102.271 25.5459 102.961C25.973 103.183 24.0829 102.307 23.7705 102.128C23.2566 101.832 22.7221 101.573 22.1987 101.294C21.8711 101.119 21.2262 100.394 21.2262 100.753C21.2262 101.216 23.6357 102.317 23.9967 102.506C25.2377 103.157 26.5629 103.782 27.9205 104.174C28.465 104.331 29.0129 104.518 28.1467 104.163C25.9128 103.246 28.6436 104.579 29.3906 104.758" stroke="#247474" stroke-width="3.41512" stroke-linecap="round"/>
<path d="M41.8073 109.435C41.8073 106.593 42.0688 103.333 39.41 101.251C37.8717 100.046 36.703 98.6954 35.4974 97.2018C34.305 95.7245 34.4797 96.7033 34.4797 98.122C34.4797 100.125 36.195 103.477 37.6459 104.866C38.9875 106.151 40.1607 107.362 41.1966 108.85" stroke="#247474" stroke-width="3.41512" stroke-linecap="round"/>
<path d="M38.5503 104.368C38.2294 103.754 37.4681 102.532 38.4033 103.849C39.0158 104.711 39.7535 105.517 40.2917 106.425C41.0475 107.7 38.8194 103.854 38.1432 102.539C38.1157 102.485 37.048 100.58 36.9672 100.644C36.627 100.916 38.5342 103.32 38.7539 103.589C39.4858 104.484 40.8823 106.358 39.5341 104.314C38.5137 102.768 37.4715 101.224 36.5375 99.6268C35.8662 98.4793 37.7257 101.132 37.8944 101.402C39.0194 103.205 38.1959 101.605 37.51 100.839C37.3748 100.688 35.9693 98.9084 36.5149 99.6918" stroke="#247474" stroke-width="3.41512" stroke-linecap="round"/>
<path d="M50.1517 116.255C50.0766 116.447 45.0952 115.27 44.3394 115.281C42.2181 115.309 40.0334 116.526 38.0295 117.143C36.1392 117.724 36.7964 117.552 38.414 118.009C39.6838 118.367 40.664 119.313 42.0552 119.373C43.3199 119.426 44.1108 119.569 45.2667 118.983C45.9824 118.62 46.5677 118.124 47.3473 117.857C47.9008 117.668 51.1324 116.915 50.1517 117.619" stroke="#247474" stroke-width="3.41512" stroke-linecap="round"/>
<path d="M46.6915 118.203C38.2887 118.203 49.8138 119.408 40.7548 118.387C40.4535 118.354 42.9354 117.555 43.2991 117.511C43.8688 117.441 45.7817 117.424 44.1812 117.424C43.4424 117.424 42.7036 117.424 41.9648 117.424C41.5499 117.424 40.4662 117.694 40.7209 117.381C41.1899 116.803 43.5031 116.765 44.2038 116.645C44.7754 116.547 46.5146 116.45 45.9339 116.45C45.1424 116.45 44.3508 116.45 43.5592 116.45C42.4553 116.45 44.2024 116.45 44.4526 116.45C45.1537 116.45 45.8548 116.45 46.5558 116.45C47.2827 116.45 43.6578 116.645 44.3847 116.645C45.496 116.645 46.6973 116.513 47.7997 116.645C48.6402 116.745 46.1138 116.839 45.2667 116.839" stroke="#247474" stroke-width="3.41512" stroke-linecap="round"/>
<path d="M56.4622 128.726C56.1331 125.89 54.8965 123.444 55.5462 120.542C55.8476 119.195 56.2167 117.783 56.7109 116.493C56.9949 115.752 57.0881 118.05 57.4799 118.745C58.5241 120.597 59.494 123.185 59.3005 125.316C59.233 126.058 58.4061 127.557 57.4799 127.557" stroke="#247474" stroke-width="3.41512" stroke-linecap="round"/>
<path d="M56.8692 122.49C56.8692 123.278 56.9727 124.008 57.118 124.785C57.2693 125.594 58.0416 127.813 57.4346 127.232C56.5175 126.354 56.4871 123.614 56.2586 122.447C56.2038 122.167 55.7355 120.346 56.055 121.516C56.3049 122.43 56.8232 123.181 57.1858 124.049C57.4977 124.796 57.7488 127.159 57.8869 126.366C57.9935 125.754 57.5966 124.962 57.5251 124.352C57.4067 123.344 57.2912 122.314 57.2763 121.299C57.2719 121.003 57.2763 120.124 57.2763 120.975C57.2763 122.13 58.0905 125.508 58.0905 124.352C58.0905 123.15 57.5952 120.428 56.7561 119.524C56.0678 118.783 57.1544 121.594 57.8869 122.295" stroke="#247474" stroke-width="3.41512" stroke-linecap="round"/>
<path d="M34.8867 61.6941C35.0743 61.6717 35.0215 61.6309 35.0903 61.4993" stroke="#FBEE8A" stroke-width="7.96861" stroke-linecap="round"/>
<path d="M31.4268 64.4224V64.6172" stroke="#FBEE8A" stroke-width="7.96861" stroke-linecap="round"/>
<path d="M37.7362 64.812C37.7061 65.0426 37.5318 65.0069 37.3291 65.0069" stroke="#FBEE8A" stroke-width="7.96861" stroke-linecap="round"/>
<path d="M33.665 66.7605H33.8686" stroke="#FBEE8A" stroke-width="7.96861" stroke-linecap="round"/>
<path d="M34.0723 65.0068V65.2017" stroke="#FBC78A" stroke-width="5.69186" stroke-linecap="round"/>
<path d="M4.87891 90.1341C4.87891 66.6957 20.3967 46.0892 42.9231 39.6143L95.3408 24.5475L129.383 16.4348C164.566 8.05042 198.347 34.7273 198.347 70.8953V72.5249C198.347 76.4044 198.863 80.2668 199.881 84.0105V84.0105C208.16 114.464 182.475 143.408 151.253 138.809L135.354 136.467C130.841 135.802 126.262 135.709 121.725 136.189L62.9777 142.408C31.9307 145.694 4.87891 121.355 4.87891 90.1341V90.1341Z" fill="#C3C3C3"/>
<path d="M4.87891 82.5781C4.87891 60.9992 19.3787 42.113 40.2254 36.5391L93.355 22.3333L131.662 13.8413C163.711 6.73672 194.1 31.1271 194.1 63.9539V65.6522C194.1 69.399 194.634 73.1267 195.685 76.723V76.723C203.707 104.172 180.781 130.775 152.448 126.892L132.004 124.091C127.911 123.53 123.765 123.451 119.653 123.856L57.2053 130.005C29.1751 132.765 4.87891 110.744 4.87891 82.5781V82.5781Z" fill="#969696"/>
<path d="M25.7884 43.343L42.0236 56.3661L53.2602 52.7429L61.9594 66.0005L75.4614 54.4722L83.0732 62.3773L127.225 76.2112L83.0732 67.6474H75.4614L61.9594 80.2461L48.5481 76.2112L35.4086 82.8812L30.6965 66.0005L12.4824 56.3661L25.7884 43.343Z" fill="#7D7D7D"/>
<path d="M118.067 25.9727L132.237 33.2516C132.237 33.2516 176.129 33.2516 168.007 38.8763C159.886 44.501 148.308 60.217 143.642 52.4417C138.976 44.6664 122.733 45.4936 122.733 38.8763C122.733 32.2591 115.993 49.6294 115.993 49.6294L118.067 25.9727Z" fill="#7D7D7D"/>
<path d="M101.73 104.834C98.3835 104.834 95.771 104.322 93.8926 103.298C92.0485 102.307 91.1264 100.873 91.1264 98.9945C91.1264 97.3894 91.724 96.16 92.9193 95.3062C94.1488 94.4183 95.5148 93.9743 97.0175 93.9743C98.1445 93.9743 99.3398 94.3329 100.603 95.0501C101.901 95.7331 102.977 96.8259 103.831 98.3286C104.855 98.0554 105.846 97.5602 106.802 96.843C107.758 96.0917 108.544 95.2038 109.158 94.1792C109.773 93.1547 110.08 92.096 110.08 91.0032C110.08 90.286 109.927 89.5859 109.619 88.9029C109.346 88.1857 108.868 87.5027 108.185 86.8538C107.468 87.2636 106.512 87.6734 105.316 88.0832C104.121 88.4589 102.943 88.6467 101.782 88.6467C100.655 88.6467 99.6813 88.3735 98.8616 87.8271C98.0762 87.2807 97.6834 86.2903 97.6834 84.856C97.6834 83.5241 98.2811 82.3458 99.4764 81.3213C100.706 80.2968 102.669 79.7845 105.367 79.7845C105.709 79.7845 106.05 79.7845 106.392 79.7845C106.768 79.7845 107.143 79.8187 107.519 79.887C108.441 79.1698 109.158 78.2477 109.67 77.1207C110.217 75.9937 110.49 74.8838 110.49 73.791C110.49 72.6298 110.149 71.6395 109.466 70.8198C108.783 69.966 107.69 69.5392 106.187 69.5392C105.709 69.5392 105.077 69.727 104.292 70.1027C103.54 70.4442 102.789 71.0418 102.038 71.8956C101.286 72.7494 100.689 73.9617 100.245 75.5327C98.2982 75.4302 96.8809 74.918 95.9929 73.9959C95.105 73.0397 94.6611 71.8956 94.6611 70.5637C94.6611 69.061 95.1562 67.5755 96.1466 66.107C97.137 64.6385 98.708 63.4261 100.859 62.4699C103.045 61.4795 105.897 60.9843 109.414 60.9843C111.805 60.9843 113.786 61.2746 115.357 61.8551C116.928 62.4357 118.157 63.187 119.045 64.1091C119.933 64.9971 120.548 65.9704 120.889 67.029C121.265 68.0877 121.453 69.0952 121.453 70.0514C121.453 72.1688 120.872 74.252 119.711 76.3011C118.584 78.3502 116.979 80.3651 114.896 82.3458C119.301 84.4291 121.504 87.5027 121.504 91.5667C121.504 93.8889 120.701 96.0575 119.096 98.0725C117.491 100.122 115.203 101.761 112.232 102.99C109.295 104.22 105.794 104.834 101.73 104.834Z" fill="#3C3C3C"/>
</g>
<path d="M95.8135 104.446C94.5091 104.446 93.3921 103.981 92.4625 103.051C91.5328 102.121 91.0687 101.005 91.0703 99.7024V75.9863C91.0703 74.6819 91.5352 73.5649 92.4648 72.6352C93.3945 71.7056 94.5107 71.2415 95.8135 71.2431H98.1851V66.4999C98.1851 63.2192 99.3417 60.4222 101.655 58.1091C103.968 55.796 106.764 54.6403 110.043 54.6418C113.324 54.6418 116.121 55.7984 118.434 58.1115C120.747 60.4246 121.903 63.2207 121.901 66.4999V71.2431H124.273C125.577 71.2431 126.694 71.7079 127.624 72.6376C128.554 73.5673 129.018 74.6835 129.016 75.9863V99.7024C129.016 101.007 128.551 102.124 127.622 103.053C126.692 103.983 125.576 104.447 124.273 104.446H95.8135ZM110.043 92.5876C111.348 92.5876 112.465 92.1228 113.394 91.1931C114.324 90.2634 114.788 89.1472 114.786 87.8444C114.786 86.54 114.322 85.423 113.392 84.4933C112.462 83.5636 111.346 83.0996 110.043 83.1012C108.739 83.1012 107.622 83.566 106.692 84.4957C105.762 85.4253 105.298 86.5416 105.3 87.8444C105.3 89.1488 105.765 90.2658 106.694 91.1955C107.624 92.1251 108.74 92.5892 110.043 92.5876ZM102.928 71.2431H117.158V66.4999C117.158 64.5236 116.466 62.8437 115.083 61.4602C113.699 60.0768 112.02 59.3851 110.043 59.3851C108.067 59.3851 106.387 60.0768 105.004 61.4602C103.62 62.8437 102.928 64.5236 102.928 66.4999V71.2431Z" fill="#BABABA"/>
</svg>
