<svg width="194" height="154" viewBox="0 0 194 154" fill="none" xmlns="http://www.w3.org/2000/svg">
<path d="M19.4527 82.809C27.7672 51.5604 56.0594 29.8117 88.3952 29.8117H114.104C119.967 29.8117 125.765 28.5802 131.121 26.1969C158.806 13.8793 190 34.1428 190 64.4436V82.3612C190 86.1203 189.603 89.8716 188.817 93.5476C184.436 114.046 168.519 130.136 148.065 134.723L87.374 148.333C77.3967 150.571 66.9937 149.988 57.3289 146.65L38.7594 140.237C18.4012 133.206 8.35216 110.319 16.9534 90.573C17.695 88.8705 18.3072 87.1144 18.7847 85.3199L19.4527 82.809Z" fill="#C3C3C3"/>
<path d="M18.51 78.9149C26.4034 49.138 53.3503 28.4035 84.1556 28.4035H108.34C113.917 28.4035 119.432 27.228 124.525 24.9537C150.779 13.2288 180.4 32.4412 180.4 61.1942V78.4968C180.4 82.0611 180.025 85.6191 179.283 89.1052C175.121 108.646 159.962 123.999 140.471 128.387L83.061 141.31C73.5428 143.452 63.6155 142.894 54.3974 139.699L36.9402 133.647C17.5467 126.924 7.9715 105.123 16.1427 86.2937C16.8464 84.6722 17.4271 83 17.88 81.2915L18.51 78.9149Z" fill="#969696"/>
<path d="M37.5847 82.4236L44.5535 76.1559C41.7659 92.4518 64.2154 87.2217 69.223 96.0333L60.5817 111.076L73.2649 122.178L44.5535 129.521L37.5847 122.178L38.2616 99.7939L25.459 104.987L29.2022 91.5564L27.9677 77.7676L37.5847 82.4236Z" fill="#7D7D7D"/>
<path d="M104.949 72.2646L120.011 90.9862L131.205 99.2398L156.646 106.084L142.603 111.721L146.266 121.182L130.798 107.292L111.259 102.662L118.789 98.032L104.949 72.2646Z" fill="#7D7D7D"/>
<path d="M125.518 24.7368L140.248 21.1235L159.836 24.7368L148.031 37.5221L159.836 50.0294V66.6944L167.487 101.449L148.031 62.2657L128.492 57.6356L136.022 53.0056V37.5221L125.518 24.7368Z" fill="#7D7D7D"/>
<path d="M189.467 61.0817C191.298 61.0817 191.936 62.8756 192.173 64.4633C192.719 68.1295 186.054 68.1074 184.067 67.845C177.635 66.9954 171.296 63.6218 166.472 59.3799C164.236 57.414 162.265 55.1938 160.014 53.2274C156.287 49.9729 152.688 46.6466 149.171 43.1697C147.333 41.3526 145.643 39.2693 143.684 37.5954C141.466 35.7008 139.17 34.0101 136.844 32.261C132.146 28.7284 126.161 26.3733 120.383 25.454C119.09 25.2484 114.78 23.4366 113.772 24.6686C113.374 25.156 112.798 26.5005 113.674 26.7194" stroke="url(#paint0_linear_674_12427)" stroke-width="3.33529" stroke-linecap="round"/>
<path d="M125.651 26.1304C126.971 25.9655 126.389 22.2364 126.044 21.5269C124.56 18.471 122.122 16.445 119.957 13.9127C119.651 13.5542 118.386 11.0559 118.386 12.0146C118.386 13.4707 118.136 15.2246 118.626 16.618C119.46 18.9853 121.09 21.0471 123.099 22.4978C124.017 23.1612 125.062 23.5579 125.062 24.8322C125.062 27.0999 124.61 19.5693 122.619 18.4834C122.175 18.2412 121.584 17.7642 121.375 17.2944C121.096 16.6664 122.583 18.9414 122.804 19.2688C123.477 20.2633 124.075 21.3779 124.321 22.5523C124.399 22.9249 124.67 24.2021 124.67 24.1668" stroke="url(#paint1_linear_674_12427)" stroke-width="3.33529" stroke-linecap="round"/>
<path d="M135.468 33.5919C133.557 33.3796 131.741 32.1498 129.665 32.4574C127.926 32.715 126.464 33.8778 124.778 34.3773C123.666 34.7067 120.537 36.1888 121.669 35.9373C122.934 35.6562 124.048 35.5555 125.345 35.5555C127.349 35.5555 129.489 36.4199 131.541 35.85C131.871 35.7582 135.337 34.6388 134.879 34.181" stroke="url(#paint2_linear_674_12427)" stroke-width="3.33529" stroke-linecap="round"/>
<path d="M145.091 38.1081C144.972 36.9171 144.343 35.845 144.306 34.6174C144.267 33.3213 144.204 31.963 144.459 30.6903C144.768 29.1448 145.2 27.4493 145.877 26.0214C146.453 24.8056 146.914 27.0523 147.142 27.5704C147.933 29.3682 147.644 31.5225 147.644 33.472C147.644 34.3412 147.012 37.1264 145.877 37.1264" stroke="url(#paint3_linear_674_12427)" stroke-width="3.33529" stroke-linecap="round"/>
<path d="M151.963 47.7295C151.385 47.6654 150.746 47.3253 150.196 47.1514C149.144 46.8194 148.182 47.0495 147.119 47.1841C145.677 47.3667 144.421 47.941 143.105 48.5259C141.733 49.1358 140.051 49.5356 138.796 50.3476C138.227 50.7161 140.136 50.0711 140.814 50.0858C141.559 50.102 142.16 50.3379 142.843 50.5658C143.983 50.9458 145.104 51.1123 146.312 51.0676C147.465 51.0249 148.405 49.7264 149.061 48.9513C149.235 48.7459 149.642 48.2102 149.912 48.1332C150.027 48.1002 150.942 48.081 150.446 48.1332C149.676 48.2143 144.841 49.3915 144.501 48.7113" stroke="url(#paint4_linear_674_12427)" stroke-width="3.33529" stroke-linecap="round"/>
<path d="M161.979 54.4056C161.866 53.391 161.019 52.5247 160.822 51.493C160.546 50.0401 160.51 48.4707 160.615 46.9986C160.668 46.2561 161.183 45.4581 161.39 44.7405C161.549 44.1865 161.716 43.6525 161.891 43.1042C162.034 42.6588 161.757 41.5206 162.175 41.7298C162.342 41.8131 162.927 44.2888 163.048 44.686C163.328 45.6074 163.638 46.5567 163.735 47.5222C163.937 49.5426 163.556 51.576 162.764 53.4238" stroke="url(#paint5_linear_674_12427)" stroke-width="3.33529" stroke-linecap="round"/>
<path d="M169.439 63.0453C168.236 63.0453 167.121 62.6526 165.905 62.6526C164.209 62.6526 162.951 63.201 161.476 64.0271C160.019 64.8432 158.508 65.6026 156.982 66.2743C155.592 66.8855 157.098 66.5797 157.843 66.5797C159.633 66.5797 161.382 66.7761 163.156 66.7761C165.434 66.7761 167.128 65.0758 168.654 63.6344" stroke="url(#paint6_linear_674_12427)" stroke-width="3.33529" stroke-linecap="round"/>
<path d="M176.705 65.2052C175.91 61.8262 175.136 57.6534 176.116 54.253C176.362 53.3989 176.404 52.3513 176.748 51.5476C176.773 51.4901 177.052 50.7166 177.097 50.7622C177.656 51.3205 177.649 52.4258 177.97 53.1185C178.465 54.1861 178.936 55.2776 179.257 56.4129C179.745 58.1332 179.59 60.5492 178.712 62.129C178.269 62.9256 176.958 66.2308 177.49 63.438C177.98 60.8641 177.097 58.5369 177.097 55.9765" stroke="url(#paint7_linear_674_12427)" stroke-width="3.33529" stroke-linecap="round"/>
<path d="M187.112 69.1323C184.113 69.1323 182.428 71.7604 180.927 73.9539C180.391 74.738 179.836 75.4946 179.28 76.2666C178.555 77.2738 179.698 76.3588 180.153 76.1138C181.297 75.4978 182.726 75.0441 183.971 74.6739C186.13 74.0318 187.898 71.7157 187.898 69.4268C187.898 67.9249 187.41 68.8714 186.72 69.8305C186.036 70.7801 185.338 71.6246 184.363 72.274" stroke="url(#paint8_linear_674_12427)" stroke-width="3.33529" stroke-linecap="round"/>
<path d="M58.8906 31.432C60.6123 29.9016 62.7832 33.7851 63.1013 34.9664C64.091 38.6423 62.0379 42.2359 59.7414 44.926C52.1761 53.7883 41.1734 56.2827 31.1826 61.2781C29.3076 62.2156 27.8917 63.7824 26.0992 64.7906C24.7905 65.5268 23.6482 66.4781 22.5757 67.5505C20.6006 69.5256 17.5304 71.3195 16.5869 74.1503C15.9351 76.1056 15.7272 78.8693 17.8523 79.9319" stroke="url(#paint9_linear_674_12427)" stroke-width="3.33529" stroke-linecap="round"/>
<path d="M62.8184 36.5372C63.0916 36.5031 63.3659 34.0441 63.4183 33.7991C63.7891 32.069 64.7748 30.4242 65.8728 29.0648C66.9666 27.7106 68.5554 26.6707 69.4508 25.1486C70.0164 24.1871 69.6908 27.3711 69.6908 28.4866C69.6908 30.9606 69.4963 33.1755 67.6291 35.0427C67.085 35.5868 66.1454 36.2416 65.4146 36.4936C65.2212 36.5603 64.3718 36.812 64.5201 36.5154C65.8578 33.84 67.3345 31.1377 67.3345 29.6648" stroke="url(#paint10_linear_674_12427)" stroke-width="3.33529" stroke-linecap="round"/>
<path d="M53.1968 48.515C56.0465 48.515 54.9289 41.049 54.5713 39.3954C54.3213 38.2391 54.3159 36.27 53.7422 35.2501C53.5897 34.9789 52.2269 38.1772 52.1714 38.3481C51.1438 41.5132 50.4074 45.322 52.9568 47.9695C54.131 49.1889 52.7977 45.0428 52.6514 44.5224C52.3167 43.3324 52.0187 42.0984 52.0187 40.8571" stroke="url(#paint11_linear_674_12427)" stroke-width="3.33529" stroke-linecap="round"/>
<path d="M48.4834 55.1911C48.5241 55.5172 51.5636 54.4056 52.1377 54.4056C54.5624 54.4056 55.5703 54.9794 57.3084 56.5437C58.0588 57.2191 58.947 57.7393 59.9047 58.0491C60.5212 58.2486 61.1374 58.5006 61.7919 58.5291C61.7984 58.5294 62.5765 58.5058 62.381 58.6818C61.5967 59.3877 59.3886 59.532 58.4102 59.7945C56.8727 60.207 55.4549 60.2963 53.8722 60.2963C51.3734 60.2963 49.2237 58.999 47.3161 57.4491C45.1709 55.7062 50.6101 56.9655 50.8833 57.0455C52.6356 57.5591 54.7167 57.4128 56.5339 57.3401C57.1945 57.3136 57.8634 57.2366 58.5193 57.1546C59.811 56.9932 55.9158 57.1546 54.614 57.1546C53.9304 57.1546 53.2468 57.1546 52.5632 57.1546C51.9159 57.1546 53.8577 57.1546 54.5049 57.1546C55.6173 57.1546 56.756 57.086 57.8648 57.1983C58.2991 57.2422 58.8315 57.351 58.1048 57.351" stroke="url(#paint12_linear_674_12427)" stroke-width="3.33529" stroke-linecap="round"/>
<path d="M34.9355 57.5473C34.9827 57.9255 36.9089 55.8874 37.0517 55.3874C37.5019 53.8117 37.2917 52.0638 37.2917 50.4348C37.2917 49.2804 37.3639 48.0986 37.2917 46.9441C37.2892 46.9033 35.7966 48.6037 35.5573 48.8749C34.9441 49.5698 34.2771 50.3023 33.7573 51.0675C32.9832 52.2072 32.6332 53.6066 32.9283 54.951C33.0044 55.2977 33.9878 57.2534 34.1064 56.631C34.4406 54.8767 33.8544 52.961 34.39 51.2203C34.4181 51.1291 34.5428 58.0762 34.5428 53.4238" stroke="url(#paint13_linear_674_12427)" stroke-width="3.33529" stroke-linecap="round"/>
<path d="M25.7075 67.1688C26.3995 67.1688 26.9736 66.7706 27.5838 66.4815C28.3068 66.139 29.075 66.187 29.8528 66.187C31.6005 66.187 32.9244 67.1742 34.0417 68.4778C34.6756 69.2174 35.3343 69.6564 36.1907 70.1032C37.3463 70.7061 35.1634 71.2013 34.5762 71.4777C33.0267 72.2069 31.5181 72.0777 29.8419 72.0777C28.5141 72.0777 27.0075 71.0214 26.1002 70.1141C24.7761 68.79 25.9554 68.8505 27.3875 69.0341C29.4672 69.3008 35.7676 69.3287 33.6708 69.3287C32.966 69.3287 30.122 69.6488 29.7655 68.936C29.631 68.6669 32.7895 68.5433 33.169 68.5433" stroke="url(#paint14_linear_674_12427)" stroke-width="3.33529" stroke-linecap="round"/>
<path d="M16.2817 71.6849C16.6219 68.2833 17.5148 64.7988 18.038 61.3981C18.0556 61.2834 16.461 63.6808 16.129 64.3325C15.5304 65.5075 14.8411 66.8036 15.4963 68.1505C15.8711 68.9209 17.2635 70.1322 17.2635 70.9758C17.2635 72.7407 16.4781 67.5046 16.4781 65.7397C16.4781 64.4112 16.5766 63.5154 17.0671 62.3035C17.2433 61.8682 18.0489 59.6339 18.0489 60.8853" stroke="url(#paint15_linear_674_12427)" stroke-width="3.33529" stroke-linecap="round"/>
<path d="M12.1581 101.973C12.1581 103.063 11.9316 104.137 11.9618 105.223C12.0015 106.653 14.0959 107.869 15.1362 108.572C18.1377 110.603 21.4348 112.227 24.8339 113.47C29.2255 115.077 33.3392 117.135 37.9461 118.15C42.4919 119.152 46.9884 120.208 51.4837 121.423C57.3091 122.997 63.3986 123.741 69.0576 125.917C73.3402 127.564 77.5375 129.145 81.548 131.404C86.1534 133.999 90.0378 137.065 94.2674 140.175C97.5574 142.594 102.505 143.896 106.518 144.538C109.856 145.072 113.19 145.564 116.576 145.564C119.554 145.564 123.041 144.984 125.608 143.404C126.733 142.711 128.758 141.708 129.382 140.458" stroke="url(#paint16_linear_674_12427)" stroke-width="3.33529" stroke-linecap="round"/>
<path d="M21.3876 110.612C21.3876 109.253 21.1539 107.96 21.1913 106.576C21.2207 105.486 21.5587 104.358 21.3658 103.249C21.1584 102.056 20.2583 100.325 19.6095 99.311C17.8822 96.6121 18.151 101.907 18.2569 102.965C18.3852 104.249 19.2245 105.764 19.9041 106.816C20.2048 107.282 20.6802 108.786 21.1913 109.042" stroke="url(#paint17_linear_674_12427)" stroke-width="3.33529" stroke-linecap="round"/>
<path d="M29.6331 116.503C30.9555 116.503 27.004 116.039 25.6842 116.121C23.6787 116.247 22.0232 117.793 20.3389 118.728C19.6448 119.114 18.9703 119.44 18.3426 119.928C17.9349 120.245 18.6576 119.876 18.9317 119.852C20.3706 119.727 21.925 120.062 23.3933 120.037C26.0808 119.992 26.9205 117.706 28.8477 116.459C30.9939 115.071 23.9792 118.426 22.1716 120.234" stroke="url(#paint18_linear_674_12427)" stroke-width="3.33529" stroke-linecap="round"/>
<path d="M10.9792 106.489C10.2893 105.186 8.7885 104.472 7.44484 104.024C6.11018 103.579 4.09238 104.106 2.95048 103.249C2.78863 103.128 2.349 102.587 2.88503 102.802C3.2722 102.957 3.44212 103.785 3.61591 104.133C4.25317 105.407 4.37194 106.659 5.83036 107.274C7.02582 107.779 7.96828 107.893 9.25568 107.863C9.56346 107.856 11.9639 107.586 10.8702 107.482C8.91455 107.295 7.06967 106.096 5.08858 106.096" stroke="url(#paint19_linear_674_12427)" stroke-width="3.33529" stroke-linecap="round"/>
<path d="M39.6484 118.074C39.81 118.051 38.8962 117.261 38.743 117.081C38 116.207 37.3421 115.823 36.8994 114.692C36.3024 113.166 36.3454 111.25 36.0704 109.631C35.9375 108.848 35.8485 108.1 35.5249 107.372C35.3179 106.907 35.5948 107.543 35.7649 107.667C36.8551 108.464 38.2884 109.416 39.2121 110.372C40.2572 111.455 40.981 113.031 41.0229 114.539C41.0362 115.019 41.0229 115.5 41.0229 115.979C41.0229 116.643 40.2844 114.876 39.8884 114.343C39.5899 113.942 37.3773 110.686 38.2085 112.86C38.5996 113.883 39.2882 114.85 39.8229 115.805C40.1372 116.366 40.1506 117.259 40.8265 117.485" stroke="url(#paint20_linear_674_12427)" stroke-width="3.33529" stroke-linecap="round"/>
<path d="M51.6249 124.161C49.0803 124.161 46.7467 123.171 44.3161 124.597C43.4477 125.107 42.8344 125.911 42.1998 126.67C41.5979 127.389 40.8574 128.204 40.0399 128.677C39.4251 129.033 40.5926 128.272 40.8471 128.208C43.5424 127.534 46.0037 127.539 48.4614 126.037C49.2381 125.562 50.015 124.927 50.534 124.172C50.8133 123.766 51.2147 122.991 51.6249 122.786" stroke="url(#paint21_linear_674_12427)" stroke-width="3.33529" stroke-linecap="round"/>
<path d="M63.9958 123.768C63.6119 122.361 62.8362 121.095 62.425 119.688C61.932 118.002 62.089 116.268 61.7378 114.55C61.4501 113.144 61.4376 111.608 60.9632 110.252C60.7543 109.655 61.7072 111.556 62.0323 111.9C63.3728 113.315 64.3778 115.512 64.574 117.474C64.6612 118.346 64.9773 121.51 63.9958 122.001" stroke="url(#paint22_linear_674_12427)" stroke-width="3.33529" stroke-linecap="round"/>
<path d="M73.4213 129.659C71.3463 127.584 68.3324 128.965 66.3416 130.259C64.8401 131.235 63.9317 132.591 62.6327 133.76C61.6924 134.607 61.4401 134.329 62.6327 133.891C65.4326 132.865 71.3025 132.677 72.4395 129.266" stroke="url(#paint23_linear_674_12427)" stroke-width="3.33529" stroke-linecap="round"/>
<path d="M80.8831 130.641C78.5683 128.069 78.9196 124.587 78.9196 121.347C78.9196 119.958 78.4232 118.692 78.3305 117.332C78.3041 116.945 77.8004 116.502 78.0687 116.819C78.5828 117.427 79.1169 118.013 79.5959 118.652C81.057 120.6 82.0612 122.111 82.0612 124.554C82.0612 125.336 82.0729 127.886 81.2758 128.284" stroke="url(#paint24_linear_674_12427)" stroke-width="3.33529" stroke-linecap="round"/>
<path d="M89.9142 138.299C89.9044 138.377 85.9446 136.957 85.398 136.935C82.6122 136.823 80.7297 138.29 78.4601 139.738C77.7363 140.2 76.9924 140.627 76.1911 140.938C75.4033 141.245 76.7238 140.879 76.9766 140.862C78.9806 140.728 81.0321 140.851 83.0418 140.851C84.9701 140.851 86.9195 140.464 88.3434 139.182C88.6763 138.882 85.4557 139.113 84.8526 139.237C84.3164 139.346 82.5662 140.376 82.2563 140.066" stroke="url(#paint25_linear_674_12427)" stroke-width="3.33529" stroke-linecap="round"/>
<path d="M99.7321 141.244C97.7393 141.244 96.5904 136.691 96.5904 135.168C96.5904 133.941 96.7019 132.684 96.394 131.492C96.3307 131.246 95.9075 128.465 95.8486 128.524C95.5966 128.776 98.6842 133.858 99.0448 134.459C99.8551 135.809 99.9284 138.094 99.9284 139.673" stroke="url(#paint26_linear_674_12427)" stroke-width="3.33529" stroke-linecap="round"/>
<path d="M110.336 146.153C108.068 146.153 106.244 146.294 104.467 147.909C103.598 148.699 102.999 149.744 102.177 150.582C101.546 151.224 99.967 152.193 101.588 151.858C102.604 151.648 103.62 151.385 104.631 151.149C105.773 150.883 106.664 149.858 107.631 149.251C108.787 148.525 109.876 147.925 110.336 146.545" stroke="url(#paint27_linear_674_12427)" stroke-width="3.33529" stroke-linecap="round"/>
<path d="M121.332 143.993C121.332 141.951 120.846 140.649 119.369 139.171C118.131 137.933 116.404 137.02 114.896 136.182C114.447 135.932 112.018 134.111 112.715 135.255C113.386 136.358 114.62 137.076 115.333 138.113C115.843 138.855 116.273 139.718 116.914 140.36C117.634 141.079 119.868 141.654 120.94 141.833" stroke="url(#paint28_linear_674_12427)" stroke-width="3.33529" stroke-linecap="round"/>
<path d="M127.615 141.833C127.159 142.695 126.297 143.56 126.24 144.582C126.176 145.744 126.044 146.853 126.044 148.029C126.044 149.323 126.044 150.618 126.044 151.912C126.044 152.225 126.014 151.284 126.055 150.974C126.126 150.44 126.536 150.119 126.786 149.687C127.32 148.765 128.436 148.248 128.946 147.331C129.327 146.645 129.382 145.068 129.382 144.287C129.382 143.169 129.675 141.437 129.186 140.458" stroke="url(#paint29_linear_674_12427)" stroke-width="3.33529" stroke-linecap="round"/>
<path d="M174.545 122.394C175.201 121.81 176.193 121.676 176.966 121.259C178.417 120.478 179.284 119.566 180.424 118.368C181.939 116.778 183.506 113.534 182.192 111.398C177.67 104.051 167.92 103.482 160.211 102.518C156.404 102.042 152.863 100.654 150.895 97.0747C150.306 96.0037 150.278 94.6456 149.804 93.5294C149.296 92.3348 148.788 91.0285 148.528 89.755C148.146 87.8916 147.809 85.9921 147.251 84.1807C146.855 82.8942 147.833 83.6378 148.626 83.8644C150.143 84.2978 150.197 86.4422 150.197 87.7478C150.197 89.1514 150.197 90.555 150.197 91.9586C150.197 92.1932 150.209 93.4905 150.197 93.0494C150.148 91.3194 149.607 89.6441 149.607 87.9115C149.607 86.5874 149.67 83.9705 148.626 82.9262C148.23 82.5301 146.788 81.4868 146.269 81.5517C145.746 81.6172 145.891 88.3003 146.564 89.1223C147.589 90.3754 149.689 92.008 150.197 93.5294" stroke="url(#paint30_linear_674_12427)" stroke-width="3.33529" stroke-linecap="round"/>
<path d="M182.791 114.539C182.926 113.325 182.874 111.9 183.195 110.7C183.69 108.841 185.017 107.578 186.085 106.053C186.921 104.859 187.12 103.488 187.798 102.267C188.353 101.269 188.902 104.634 188.976 104.929C189.482 106.952 189.198 109.827 187.744 111.354C187.445 111.668 185.635 113.668 185.06 113.34C184.156 112.823 187.504 108.173 187.504 107.471" stroke="url(#paint31_linear_674_12427)" stroke-width="3.33529" stroke-linecap="round"/>
<path d="M176.31 108.256C173.265 108.256 170.437 108.63 167.823 110.263C166.891 110.846 165.306 112.685 164.114 112.685C163.661 112.685 164.992 112.378 165.445 112.401C167.825 112.523 170.41 112.979 172.776 112.532C174.457 112.215 174.838 111.646 175.918 110.503C177.678 108.639 172.63 110.657 171.838 110.961C170.498 111.477 170.688 111.315 171.205 110.023" stroke="url(#paint32_linear_674_12427)" stroke-width="3.33529" stroke-linecap="round"/>
<path d="M167.671 103.347C166.39 101.906 166.013 98.7695 165.751 96.9111C165.593 95.7835 165.377 94.7326 165.162 93.6167C164.984 92.6914 164.57 92.288 165.664 92.984C168.287 94.6533 168.341 98.9797 167.475 101.58" stroke="url(#paint33_linear_674_12427)" stroke-width="3.33529" stroke-linecap="round"/>
<path d="M155.301 101.58C153.109 101.58 150.765 100.898 148.658 101.864C147.983 102.173 147.589 102.673 147.043 103.151C146.486 103.638 144.57 104.738 145.265 104.482C147.531 103.647 149.704 105.786 152.127 104.504C153.097 103.99 154.04 102.727 154.516 101.776" stroke="url(#paint34_linear_674_12427)" stroke-width="3.33529" stroke-linecap="round"/>
<defs>
<linearGradient id="paint0_linear_674_12427" x1="152.71" y1="24.2427" x2="152.71" y2="67.9467" gradientUnits="userSpaceOnUse">
<stop stop-color="#247474"/>
<stop offset="1" stop-color="#00F19A"/>
</linearGradient>
<linearGradient id="paint1_linear_674_12427" x1="122.398" y1="11.797" x2="122.398" y2="26.1304" gradientUnits="userSpaceOnUse">
<stop stop-color="#247474"/>
<stop offset="1" stop-color="#00F19A"/>
</linearGradient>
<linearGradient id="paint2_linear_674_12427" x1="128.447" y1="32.4083" x2="128.447" y2="36.0444" gradientUnits="userSpaceOnUse">
<stop stop-color="#247474"/>
<stop offset="1" stop-color="#00F19A"/>
</linearGradient>
<linearGradient id="paint3_linear_674_12427" x1="145.983" y1="25.6654" x2="145.983" y2="38.1081" gradientUnits="userSpaceOnUse">
<stop stop-color="#247474"/>
<stop offset="1" stop-color="#00F19A"/>
</linearGradient>
<linearGradient id="paint4_linear_674_12427" x1="145.327" y1="46.9803" x2="145.327" y2="51.0747" gradientUnits="userSpaceOnUse">
<stop stop-color="#247474"/>
<stop offset="1" stop-color="#00F19A"/>
</linearGradient>
<linearGradient id="paint5_linear_674_12427" x1="162.174" y1="41.7043" x2="162.174" y2="54.4056" gradientUnits="userSpaceOnUse">
<stop stop-color="#247474"/>
<stop offset="1" stop-color="#00F19A"/>
</linearGradient>
<linearGradient id="paint6_linear_674_12427" x1="162.927" y1="62.6526" x2="162.927" y2="66.7761" gradientUnits="userSpaceOnUse">
<stop stop-color="#247474"/>
<stop offset="1" stop-color="#00F19A"/>
</linearGradient>
<linearGradient id="paint7_linear_674_12427" x1="177.593" y1="50.7603" x2="177.593" y2="65.2052" gradientUnits="userSpaceOnUse">
<stop stop-color="#247474"/>
<stop offset="1" stop-color="#00F19A"/>
</linearGradient>
<linearGradient id="paint8_linear_674_12427" x1="183.471" y1="68.6416" x2="183.471" y2="76.7292" gradientUnits="userSpaceOnUse">
<stop stop-color="#247474"/>
<stop offset="1" stop-color="#00F19A"/>
</linearGradient>
<linearGradient id="paint9_linear_674_12427" x1="39.7475" y1="31.08" x2="39.7475" y2="79.9319" gradientUnits="userSpaceOnUse">
<stop stop-color="#247474"/>
<stop offset="1" stop-color="#00F19A"/>
</linearGradient>
<linearGradient id="paint10_linear_674_12427" x1="66.3012" y1="24.9701" x2="66.3012" y2="36.6568" gradientUnits="userSpaceOnUse">
<stop stop-color="#247474"/>
<stop offset="1" stop-color="#00F19A"/>
</linearGradient>
<linearGradient id="paint11_linear_674_12427" x1="53.1557" y1="35.2338" x2="53.1557" y2="48.515" gradientUnits="userSpaceOnUse">
<stop stop-color="#247474"/>
<stop offset="1" stop-color="#00F19A"/>
</linearGradient>
<linearGradient id="paint12_linear_674_12427" x1="54.6144" y1="54.4056" x2="54.6144" y2="60.2963" gradientUnits="userSpaceOnUse">
<stop stop-color="#247474"/>
<stop offset="1" stop-color="#00F19A"/>
</linearGradient>
<linearGradient id="paint13_linear_674_12427" x1="35.0825" y1="46.9434" x2="35.0825" y2="57.5938" gradientUnits="userSpaceOnUse">
<stop stop-color="#247474"/>
<stop offset="1" stop-color="#00F19A"/>
</linearGradient>
<linearGradient id="paint14_linear_674_12427" x1="31.0232" y1="66.1847" x2="31.0232" y2="72.0865" gradientUnits="userSpaceOnUse">
<stop stop-color="#247474"/>
<stop offset="1" stop-color="#00F19A"/>
</linearGradient>
<linearGradient id="paint15_linear_674_12427" x1="16.6397" y1="60.509" x2="16.6397" y2="71.6849" gradientUnits="userSpaceOnUse">
<stop stop-color="#247474"/>
<stop offset="1" stop-color="#00F19A"/>
</linearGradient>
<linearGradient id="paint16_linear_674_12427" x1="70.6707" y1="101.973" x2="70.6707" y2="145.564" gradientUnits="userSpaceOnUse">
<stop stop-color="#247474"/>
<stop offset="1" stop-color="#00F19A"/>
</linearGradient>
<linearGradient id="paint17_linear_674_12427" x1="19.8004" y1="98.5531" x2="19.8004" y2="110.612" gradientUnits="userSpaceOnUse">
<stop stop-color="#247474"/>
<stop offset="1" stop-color="#00F19A"/>
</linearGradient>
<linearGradient id="paint18_linear_674_12427" x1="24.0604" y1="116.111" x2="24.0604" y2="120.234" gradientUnits="userSpaceOnUse">
<stop stop-color="#247474"/>
<stop offset="1" stop-color="#00F19A"/>
</linearGradient>
<linearGradient id="paint19_linear_674_12427" x1="6.89038" y1="102.752" x2="6.89038" y2="107.868" gradientUnits="userSpaceOnUse">
<stop stop-color="#247474"/>
<stop offset="1" stop-color="#00F19A"/>
</linearGradient>
<linearGradient id="paint20_linear_674_12427" x1="38.24" y1="107.204" x2="38.24" y2="118.074" gradientUnits="userSpaceOnUse">
<stop stop-color="#247474"/>
<stop offset="1" stop-color="#00F19A"/>
</linearGradient>
<linearGradient id="paint21_linear_674_12427" x1="45.7441" y1="122.786" x2="45.7441" y2="128.771" gradientUnits="userSpaceOnUse">
<stop stop-color="#247474"/>
<stop offset="1" stop-color="#00F19A"/>
</linearGradient>
<linearGradient id="paint22_linear_674_12427" x1="62.8129" y1="110.137" x2="62.8129" y2="123.768" gradientUnits="userSpaceOnUse">
<stop stop-color="#247474"/>
<stop offset="1" stop-color="#00F19A"/>
</linearGradient>
<linearGradient id="paint23_linear_674_12427" x1="67.6257" y1="128.595" x2="67.6257" y2="134.309" gradientUnits="userSpaceOnUse">
<stop stop-color="#247474"/>
<stop offset="1" stop-color="#00F19A"/>
</linearGradient>
<linearGradient id="paint24_linear_674_12427" x1="80.0257" y1="116.711" x2="80.0257" y2="130.641" gradientUnits="userSpaceOnUse">
<stop stop-color="#247474"/>
<stop offset="1" stop-color="#00F19A"/>
</linearGradient>
<linearGradient id="paint25_linear_674_12427" x1="82.9288" y1="136.929" x2="82.9288" y2="141.06" gradientUnits="userSpaceOnUse">
<stop stop-color="#247474"/>
<stop offset="1" stop-color="#00F19A"/>
</linearGradient>
<linearGradient id="paint26_linear_674_12427" x1="97.8812" y1="128.523" x2="97.8812" y2="141.244" gradientUnits="userSpaceOnUse">
<stop stop-color="#247474"/>
<stop offset="1" stop-color="#00F19A"/>
</linearGradient>
<linearGradient id="paint27_linear_674_12427" x1="105.608" y1="146.153" x2="105.608" y2="151.927" gradientUnits="userSpaceOnUse">
<stop stop-color="#247474"/>
<stop offset="1" stop-color="#00F19A"/>
</linearGradient>
<linearGradient id="paint28_linear_674_12427" x1="116.961" y1="134.881" x2="116.961" y2="143.993" gradientUnits="userSpaceOnUse">
<stop stop-color="#247474"/>
<stop offset="1" stop-color="#00F19A"/>
</linearGradient>
<linearGradient id="paint29_linear_674_12427" x1="127.751" y1="140.458" x2="127.751" y2="151.975" gradientUnits="userSpaceOnUse">
<stop stop-color="#247474"/>
<stop offset="1" stop-color="#00F19A"/>
</linearGradient>
<linearGradient id="paint30_linear_674_12427" x1="164.319" y1="81.5488" x2="164.319" y2="122.394" gradientUnits="userSpaceOnUse">
<stop stop-color="#247474"/>
<stop offset="1" stop-color="#00F19A"/>
</linearGradient>
<linearGradient id="paint31_linear_674_12427" x1="185.999" y1="102.083" x2="185.999" y2="114.539" gradientUnits="userSpaceOnUse">
<stop stop-color="#247474"/>
<stop offset="1" stop-color="#00F19A"/>
</linearGradient>
<linearGradient id="paint32_linear_674_12427" x1="170.166" y1="108.256" x2="170.166" y2="112.724" gradientUnits="userSpaceOnUse">
<stop stop-color="#247474"/>
<stop offset="1" stop-color="#00F19A"/>
</linearGradient>
<linearGradient id="paint33_linear_674_12427" x1="166.456" y1="92.6324" x2="166.456" y2="103.347" gradientUnits="userSpaceOnUse">
<stop stop-color="#247474"/>
<stop offset="1" stop-color="#00F19A"/>
</linearGradient>
<linearGradient id="paint34_linear_674_12427" x1="150.208" y1="101.346" x2="150.208" y2="104.924" gradientUnits="userSpaceOnUse">
<stop stop-color="#247474"/>
<stop offset="1" stop-color="#00F19A"/>
</linearGradient>
</defs>
</svg>
