<svg width="83" height="77" viewBox="0 0 83 77" fill="none" xmlns="http://www.w3.org/2000/svg">
<path d="M44.8015 2.55063C44.1012 3.12813 38.6543 13.1562 38.6543 13.1562L34.6016 28.3216L50.3716 26.9801C50.3716 26.9801 63.4895 4.3493 63.7553 3.82594C64.2287 2.87547 64.4816 2.48445 62.6724 2.48445C60.8633 2.47844 45.4564 2.00922 44.8015 2.55063Z" fill="#176CC7"/>
<path d="M52.9642 26.0416C52.1796 25.6506 29.0692 25.3137 28.5246 26.0416C28.0317 26.7033 28.3106 30.1744 28.4986 30.5894C28.8358 31.3113 36.2993 34.4575 36.2993 34.4575L36.1567 35.8892C36.1567 35.8892 36.7662 36.0336 41.1042 36.0336C45.4423 36.0336 46.2982 35.829 46.2982 35.829L46.3112 34.5357C46.3112 34.5357 53.029 31.5038 53.3662 31.0827C53.6515 30.7338 53.7488 26.4326 52.9642 26.0416ZM46.0842 31.5279C46.0842 31.5279 46.2982 30.6436 45.8508 30.439C45.4034 30.2285 37.7259 30.3247 37.1164 30.3548C36.5068 30.3849 36.5068 31.3955 36.5068 31.3955L31.5787 28.6704V28.2253L49.9295 28.3456L49.9619 28.8509L46.0842 31.5279Z" fill="#CECDD2"/>
<path d="M38.4265 30.782C37.817 30.782 37.4668 31.3715 37.4668 32.3882C37.4668 33.3386 37.817 34.1387 38.5886 34.0785C39.2241 34.0304 39.4445 33.1281 39.3862 32.328C39.3278 31.3775 39.1981 30.782 38.4265 30.782Z" fill="#FDFFFF"/>
<path d="M18.7852 55.2776C18.7852 69.691 33.0832 75.8089 42.4272 75.5502C53.3144 75.2494 64.8048 67.5855 64.0591 53.8338C63.3523 40.804 51.4405 35.0109 41.2081 35.0771C29.3158 35.1613 18.7852 42.6869 18.7852 55.2776Z" fill="#CECDD2"/>
<path d="M41.8439 72.8673C41.6818 72.8673 41.5132 72.8673 41.3511 72.8613C36.4878 72.7109 31.6829 70.8099 28.1684 67.6517C24.4074 64.271 22.3454 59.6991 22.3713 54.7843C22.4297 42.7831 33.7384 37.2187 41.4095 37.2187H41.4743C51.8688 37.2608 60.4022 44.7563 60.6421 54.9167C60.7459 59.4404 58.7487 64.1867 54.8321 67.76C51.1749 71.0867 46.3246 72.8673 41.8439 72.8673ZM41.3965 39.2159C34.5166 39.2159 24.3426 44.4374 24.3166 54.7843C24.2972 62.5204 30.7556 70.4731 41.5132 70.8099C45.6113 70.9303 49.8327 69.4745 53.2434 66.3644C56.7839 63.134 58.7746 58.9712 58.7033 54.9407C58.5347 46.2 50.8313 39.246 41.4808 39.2038C41.4678 39.2038 41.4159 39.2159 41.3965 39.2159Z" fill="#9B9B9D"/>
<path d="M37.6677 36.978C37.2202 36.4066 32.6358 36.569 27.7012 40.5092C22.799 44.4254 22.0663 48.7566 22.9481 48.9852C23.9532 49.2439 25.1788 45.057 29.4131 41.5379C33.3037 38.3195 38.556 38.115 37.6677 36.978ZM56.9846 52.7691C55.4219 52.9736 57.043 57.3169 53.4182 62.1775C50.2733 66.3945 46.7069 67.9224 47.1219 68.8488C47.6795 70.088 53.3923 67.002 56.0379 61.973C58.4306 57.4252 58.1453 52.6187 56.9846 52.7691Z" fill="#FEFFFA"/>
<path d="M16.5411 2.23782C16.1326 2.58673 31.7534 28.3938 31.7534 28.3938C31.7534 28.3938 34.3731 28.7066 40.222 28.7547C46.0709 28.8028 48.9694 28.4419 48.9694 28.4419C48.9694 28.4419 36.8242 2.49649 36.098 2.23782C35.7413 2.10548 30.9299 2.05735 26.2287 2.00922C21.5211 1.95508 16.9301 1.90094 16.5411 2.23782Z" fill="#2E9DF4"/>
<path d="M36.8635 51.9449C37.5378 51.951 38.1409 51.1028 38.6986 50.5854C39.8852 49.4785 41.1302 48.6003 42.5503 49.7913C46.0389 52.733 39.0357 55.7167 36.3771 59.7953C34.3929 62.8392 33.9909 65.1793 34.5421 65.8049C35.0932 66.4306 48.5094 66.4005 48.691 66.0877C48.8725 65.7749 49.0606 61.606 48.7493 61.4075C48.4381 61.209 41.8435 61.3233 41.8435 61.3233C41.8435 61.3233 42.3946 60.1322 44.6577 58.3155C47.1412 56.3243 49.1319 53.5872 48.6002 50.3508C47.4978 43.6614 40.2354 43.4148 37.0904 45.7428C34.0233 48.0107 34.6847 51.9209 36.8635 51.9449Z" fill="#9B9B9D"/>
</svg>
