<svg width="94" height="80" viewBox="0 0 94 80" fill="none" xmlns="http://www.w3.org/2000/svg">
<path d="M74.6821 8.66885V0H18.6705V8.66885H0V21.0205C0 31.6358 8.81715 40.3509 20.1828 41.7551C21.8108 46.055 24.6983 49.879 28.5401 52.8228C32.382 55.7665 37.0354 57.7208 42.0087 58.479V63.0615C42.0087 65.2915 41.0251 67.4301 39.2744 69.0069C37.5237 70.5838 35.1493 71.4697 32.6734 71.4697H28.0058V79.8778H65.3468V71.4697H60.6792C58.2033 71.4697 55.8288 70.5838 54.0781 69.0069C52.3274 67.4301 51.3439 65.2915 51.3439 63.0615V58.479C56.3172 57.7208 60.9706 55.7665 64.8124 52.8228C68.6543 49.879 71.5418 46.055 73.1697 41.7551C84.5354 40.3509 93.3526 31.6358 93.3526 21.0205V8.66885H74.6821ZM9.33526 21.0205V17.077H18.6705V32.9097C15.9422 32.0383 13.5803 30.4277 11.9088 28.299C10.2374 26.1702 9.33839 23.6278 9.33526 21.0205ZM84.0173 21.0205C84.0138 23.6282 83.1147 26.171 81.4434 28.3004C79.772 30.4297 77.4103 32.0412 74.6821 32.9139V17.077H84.0173V21.0205Z" fill="#FBEE8A"/>
</svg>
